<svg width="19" height="19" viewBox="0 0 19 19" fill="none" xmlns="http://www.w3.org/2000/svg">
<path d="M16.8077 7.30769H11.6923V2.19231C11.6923 0.993846 10.6985 0 9.5 0C8.30154 0 7.30769 0.993846 7.30769 2.19231V7.30769H2.19231C0.993846 7.30769 0 8.30154 0 9.5C0 10.6985 0.993846 11.6923 2.19231 11.6923H7.30769V16.8077C7.30769 18.0062 8.30154 19 9.5 19C10.6985 19 11.6923 18.0062 11.6923 16.8077V11.6923H16.8077C18.0062 11.6923 19 10.6985 19 9.5C19 8.30154 18.0062 7.30769 16.8077 7.30769Z" fill="#7DBA28"/>
<path d="M16.8077 7.30769H11.6923V2.19231C11.6923 0.993846 10.6985 0 9.5 0C8.30154 0 7.30769 0.993846 7.30769 2.19231V7.30769H2.19231C0.993846 7.30769 0 8.30154 0 9.5C0 10.6985 0.993846 11.6923 2.19231 11.6923H7.30769V16.8077C7.30769 18.0062 8.30154 19 9.5 19C10.6985 19 11.6923 18.0062 11.6923 16.8077V11.6923H16.8077C18.0062 11.6923 19 10.6985 19 9.5C19 8.30154 18.0062 7.30769 16.8077 7.30769Z" fill="black" fill-opacity="0.2"/>
</svg>
