<svg width="74" height="74" viewBox="0 0 74 74" fill="none" xmlns="http://www.w3.org/2000/svg">
<path d="M30.71 43.29V39.8675C30.71 38.5416 29.7233 37.8941 28.5208 38.4183L13.0733 45.0783C10.6375 46.1266 8.66417 44.8316 8.66417 42.2108V38.1408C8.66417 36.0441 10.2367 33.6083 12.1792 32.8066L29.7542 25.2525C30.2475 25.0058 30.6792 24.3583 30.6792 23.8033V14.3683C30.6792 11.4083 32.8683 7.86248 35.4892 6.50581C36.4142 6.04331 37.5242 6.04331 38.4492 6.50581C41.1008 7.86248 43.29 11.3775 43.29 14.3375V23.7725C43.29 24.3275 43.7217 24.975 44.215 25.2216L47.4217 26.5783L30.71 43.29Z" fill="#7DBA28"/>
<path opacity="0.4" d="M65.3358 38.1408V42.2108C65.3358 44.8316 63.3625 46.1266 60.9267 45.0783L45.4792 38.4183C44.2458 37.925 43.29 38.5416 43.29 39.8675V48.84C43.29 49.5491 43.6908 50.5666 44.215 51.06L51.3683 58.2441C52.1083 58.9841 52.4475 60.4641 52.1083 61.4816L50.7208 65.675C50.1042 67.4941 48.0383 68.3266 46.3425 67.4941L39.0042 61.3275C37.8942 60.3716 36.075 60.3716 34.965 61.3275L27.6267 67.4941C25.9308 68.3575 23.865 67.4941 23.31 65.675L21.9225 61.4816C21.5833 60.4333 21.9225 58.9841 22.6625 58.2441L29.8158 51.06C30.3092 50.5666 30.71 49.5491 30.71 48.84V43.29L47.4217 26.5783L61.8208 32.7758C63.7633 33.6083 65.3358 36.0441 65.3358 38.1408Z" fill="#7DBA28"/>
</svg>
