<svg width="43" height="43" viewBox="0 0 43 43" fill="none" xmlns="http://www.w3.org/2000/svg">
<path opacity="0.4" d="M21.4997 39.4168C31.3948 39.4168 39.4163 31.3953 39.4163 21.5002C39.4163 11.6051 31.3948 3.5835 21.4997 3.5835C11.6046 3.5835 3.58301 11.6051 3.58301 21.5002C3.58301 31.3953 11.6046 39.4168 21.4997 39.4168Z" fill="#7DBA28"/>
<path d="M23.7576 29.1686C23.4172 29.1686 23.0768 29.0432 22.808 28.7744L16.4834 22.4499C15.9639 21.9303 15.9639 21.0703 16.4834 20.5507L22.808 14.2261C23.3276 13.7065 24.1876 13.7065 24.7072 14.2261C25.2268 14.7457 25.2268 15.6057 24.7072 16.1253L19.3322 21.5003L24.7072 26.8753C25.2268 27.3949 25.2268 28.2549 24.7072 28.7744C24.4564 29.0432 24.1159 29.1686 23.7576 29.1686Z" fill="#7DBA28"/>
</svg>
