<svg width="43" height="43" viewBox="0 0 43 43" fill="none" xmlns="http://www.w3.org/2000/svg">
<path opacity="0.4" d="M21.5003 39.4168C11.6052 39.4168 3.58366 31.3953 3.58366 21.5002C3.58366 11.6051 11.6052 3.5835 21.5003 3.5835C31.3954 3.5835 39.417 11.6051 39.417 21.5002C39.417 31.3953 31.3954 39.4168 21.5003 39.4168Z" fill="#7DBA28"/>
<path d="M19.2424 29.1686C19.5828 29.1686 19.9232 29.0432 20.192 28.7744L26.5166 22.4499C27.0361 21.9303 27.0361 21.0703 26.5166 20.5507L20.192 14.2261C19.6724 13.7065 18.8124 13.7065 18.2928 14.2261C17.7732 14.7457 17.7732 15.6057 18.2928 16.1253L23.6678 21.5003L18.2928 26.8753C17.7732 27.3949 17.7732 28.2549 18.2928 28.7744C18.5436 29.0432 18.8841 29.1686 19.2424 29.1686Z" fill="#7DBA28"/>
</svg>
