<svg width="50" height="50" viewBox="0 0 50 50" fill="none" xmlns="http://www.w3.org/2000/svg">
<path d="M45.8333 44.2708H4.16667C3.31251 44.2708 2.60417 44.9791 2.60417 45.8333C2.60417 46.6875 3.31251 47.3958 4.16667 47.3958H45.8333C46.6875 47.3958 47.3958 46.6875 47.3958 45.8333C47.3958 44.9791 46.6875 44.2708 45.8333 44.2708Z" fill="#7DBA28"/>
<path opacity="0.4" d="M35.4167 4.16669H14.5833C8.33333 4.16669 6.25 7.89585 6.25 12.5V45.8334H43.75V12.5C43.75 7.89585 41.6667 4.16669 35.4167 4.16669Z" fill="#7DBA28"/>
<path d="M20.8333 35.9375H14.5833C13.7292 35.9375 13.0208 35.2292 13.0208 34.375C13.0208 33.5208 13.7292 32.8125 14.5833 32.8125H20.8333C21.6875 32.8125 22.3958 33.5208 22.3958 34.375C22.3958 35.2292 21.6875 35.9375 20.8333 35.9375Z" fill="#7DBA28"/>
<path d="M35.4167 35.9375H29.1667C28.3125 35.9375 27.6042 35.2292 27.6042 34.375C27.6042 33.5208 28.3125 32.8125 29.1667 32.8125H35.4167C36.2708 32.8125 36.9792 33.5208 36.9792 34.375C36.9792 35.2292 36.2708 35.9375 35.4167 35.9375Z" fill="#7DBA28"/>
<path d="M20.8333 26.5625H14.5833C13.7292 26.5625 13.0208 25.8542 13.0208 25C13.0208 24.1458 13.7292 23.4375 14.5833 23.4375H20.8333C21.6875 23.4375 22.3958 24.1458 22.3958 25C22.3958 25.8542 21.6875 26.5625 20.8333 26.5625Z" fill="#7DBA28"/>
<path d="M35.4167 26.5625H29.1667C28.3125 26.5625 27.6042 25.8542 27.6042 25C27.6042 24.1458 28.3125 23.4375 29.1667 23.4375H35.4167C36.2708 23.4375 36.9792 24.1458 36.9792 25C36.9792 25.8542 36.2708 26.5625 35.4167 26.5625Z" fill="#7DBA28"/>
<path d="M20.8333 17.1875H14.5833C13.7292 17.1875 13.0208 16.4792 13.0208 15.625C13.0208 14.7708 13.7292 14.0625 14.5833 14.0625H20.8333C21.6875 14.0625 22.3958 14.7708 22.3958 15.625C22.3958 16.4792 21.6875 17.1875 20.8333 17.1875Z" fill="#7DBA28"/>
<path d="M35.4167 17.1875H29.1667C28.3125 17.1875 27.6042 16.4792 27.6042 15.625C27.6042 14.7708 28.3125 14.0625 29.1667 14.0625H35.4167C36.2708 14.0625 36.9792 14.7708 36.9792 15.625C36.9792 16.4792 36.2708 17.1875 35.4167 17.1875Z" fill="#7DBA28"/>
</svg>
