<svg width="96" height="96" viewBox="0 0 96 96" fill="none" xmlns="http://www.w3.org/2000/svg">
<path d="M85 88H11C9.36 88 8 86.64 8 85C8 83.36 9.36 82 11 82H85C86.64 82 88 83.36 88 85C88 86.64 86.64 88 85 88Z" fill="#7DBA28"/>
<path opacity="0.4" d="M82.36 54.8L53.44 83.72C47.76 89.4 38.6 89.4 32.96 83.76L14.52 65.32L63.96 15.88L82.4 34.32C88.04 39.96 88.04 49.12 82.36 54.8Z" fill="#7DBA28"/>
<path d="M63.96 15.88L14.48 65.32L10.84 61.68C5.2 56.04 5.2 46.88 10.88 41.2L39.8 12.28C45.48 6.60003 54.64 6.60003 60.28 12.24L63.96 15.88Z" fill="#7DBA28"/>
<path d="M51.56 70.4L46.16 75.8C45.04 76.92 43.24 76.92 42.12 75.8C41 74.68 41 72.88 42.12 71.76L47.52 66.36C48.64 65.24 50.44 65.24 51.56 66.36C52.68 67.48 52.68 69.28 51.56 70.4Z" fill="#7DBA28"/>
<path d="M69.08 52.88L58.32 63.64C57.2 64.76 55.4 64.76 54.28 63.64C53.16 62.52 53.16 60.72 54.28 59.6L65.04 48.84C66.16 47.72 67.96 47.72 69.08 48.84C70.16 49.96 70.16 51.76 69.08 52.88Z" fill="#7DBA28"/>
</svg>
