<svg width="37" height="31" viewBox="0 0 37 31" fill="none" xmlns="http://www.w3.org/2000/svg">
<path d="M15.42 30.9997H1.49226C0.0994837 30.9997 0 30.9106 0 29.5592C0.00132645 20.3481 0.00198967 11.1362 0.00198967 1.92374C0.00198967 0.447547 0.171112 0.28903 1.67332 0.287048C8.23792 0.287048 14.8038 0.287048 21.3711 0.287048C22.8076 0.287048 22.8813 0.362344 22.8813 1.80881C22.8813 4.5036 23.0802 4.248 20.4061 4.24998C15.4346 4.24998 10.4604 4.24998 5.48354 4.24998C4.047 4.24998 3.97537 4.32329 3.97537 5.76976C3.97537 12.3403 3.97537 18.9102 3.97537 25.4794C3.97537 26.9675 4.04103 27.0329 5.56711 27.0329C12.1649 27.0329 18.762 27.0329 25.3584 27.0329C26.793 27.0329 26.8666 26.9536 26.8706 25.5091C26.8706 23.7595 26.8924 22.0098 26.8706 20.2602C26.8546 19.4121 27.2068 19.0713 28.0544 19.0911C31.218 19.1288 30.84 18.7919 30.84 21.8236C30.8519 24.4312 30.84 27.0388 30.84 29.6484C30.84 30.8789 30.7186 30.9918 29.4472 30.9938C24.7715 31.0004 20.0957 31.0024 15.42 30.9997Z" fill="#7DBA28"/>
<path d="M17.2704 23.815C17.0038 23.7829 16.76 23.6494 16.5899 23.4425C13.3308 20.2034 10.0717 16.9624 6.81264 13.7194C6.33114 13.2399 6.36696 12.8396 6.8405 12.376C7.80483 11.4275 8.7539 10.4612 9.68773 9.47711C10.2627 8.87078 10.7462 8.86087 11.3471 9.47711C12.9607 11.1356 14.6162 12.7544 16.2596 14.3832C17.1908 15.3066 17.2545 15.3086 18.1558 14.403C22.7029 9.88 27.2486 5.35434 31.793 0.826036C32.9033 -0.279621 32.953 -0.275658 34.0752 0.839906C34.8492 1.60871 35.6371 2.36563 36.3812 3.16218C37.2268 4.06573 37.2089 4.3253 36.3175 5.21498C31.5887 9.92822 26.8566 14.6428 22.1212 19.3587C20.808 20.6651 19.4955 21.9709 18.1836 23.276C17.927 23.5316 17.6822 23.815 17.2704 23.815Z" fill="#7DBA28"/>
</svg>
