<svg width="50" height="50" viewBox="0 0 50 50" fill="none" xmlns="http://www.w3.org/2000/svg">
<path opacity="0.4" d="M25 45.8334C36.5059 45.8334 45.8333 36.506 45.8333 25C45.8333 13.4941 36.5059 4.16669 25 4.16669C13.4941 4.16669 4.16666 13.4941 4.16666 25C4.16666 36.506 13.4941 45.8334 25 45.8334Z" fill="#7DBA28"/>
<path d="M16.6667 30.7291C16.2708 30.7291 15.875 30.5834 15.5625 30.2709L11.3958 26.1042C10.7917 25.5 10.7917 24.4999 11.3958 23.8957L15.5625 19.7291C16.1667 19.1249 17.1667 19.1249 17.7708 19.7291C18.375 20.3332 18.375 21.3334 17.7708 21.9375L14.7083 25L17.7708 28.0624C18.375 28.6666 18.375 29.6667 17.7708 30.2709C17.4583 30.5834 17.0625 30.7291 16.6667 30.7291Z" fill="#7DBA28"/>
<path d="M33.3334 30.7291C32.9375 30.7291 32.5417 30.5834 32.2292 30.2709C31.625 29.6667 31.625 28.6666 32.2292 28.0624L35.2917 25L32.2292 21.9375C31.625 21.3334 31.625 20.3332 32.2292 19.7291C32.8334 19.1249 33.8333 19.1249 34.4375 19.7291L38.6042 23.8957C39.2083 24.4999 39.2083 25.5 38.6042 26.1042L34.4375 30.2709C34.125 30.5834 33.7292 30.7291 33.3334 30.7291Z" fill="#7DBA28"/>
<path d="M22.9167 31.4167C22.7083 31.4167 22.5 31.375 22.3125 31.2917C21.5208 30.9583 21.1458 30.0417 21.5 29.2292L25.6667 19.4999C26 18.7083 26.9167 18.3332 27.7083 18.6874C28.5 19.0207 28.875 19.9375 28.5208 20.75L24.3542 30.4791C24.1042 31.0625 23.5208 31.4167 22.9167 31.4167Z" fill="#7DBA28"/>
</svg>
