<svg width="96" height="96" viewBox="0 0 96 96" fill="none" xmlns="http://www.w3.org/2000/svg">
<path opacity="0.4" d="M88 32V64.76C88 79.32 79.32 88 64.76 88H31.24C16.68 88 8 79.32 8 64.76V32.04L88 32Z" fill="#7DBA28"/>
<path d="M36 71C35.56 71 35.08 70.88 34.68 70.68C31.6 69.12 28.96 66.8 27.04 63.92C25.44 61.52 25.44 58.44 27.04 56.04C28.96 53.16 31.6 50.84 34.68 49.32C36.16 48.56 37.96 49.2 38.72 50.68C39.48 52.16 38.88 53.96 37.36 54.72C35.2 55.8 33.36 57.44 32.04 59.44C31.8 59.8 31.8 60.28 32.04 60.68C33.36 62.68 35.2 64.32 37.36 65.4C38.84 66.16 39.44 67.96 38.72 69.44C38.16 70.4 37.08 71 36 71Z" fill="#7DBA28"/>
<path d="M60.84 71C59.72 71 58.68 70.4 58.16 69.36C57.4 67.88 58 66.08 59.52 65.32C61.68 64.24 63.52 62.6 64.84 60.6C65.08 60.24 65.08 59.76 64.84 59.36C63.52 57.36 61.68 55.72 59.52 54.64C58.04 53.88 57.44 52.08 58.16 50.6C58.92 49.12 60.72 48.52 62.2 49.24C65.28 50.8 67.92 53.12 69.84 56C71.44 58.4 71.44 61.48 69.84 63.88C67.92 66.76 65.28 69.08 62.2 70.6C61.72 70.88 61.28 71 60.84 71Z" fill="#7DBA28"/>
<path d="M88 31.24V32L8 32.04V31.24C8 16.68 16.68 8 31.24 8H64.76C79.32 8 88 16.68 88 31.24Z" fill="#7DBA28"/>
</svg>
