<svg width="34" height="34" viewBox="0 0 34 34" fill="none" xmlns="http://www.w3.org/2000/svg">
<path d="M20.5844 4.91583L17.751 2.0825C17.7369 2.06833 17.7227 2.06833 17.7227 2.05417C17.6377 1.96917 17.5244 1.89833 17.411 1.84167C17.3969 1.84167 17.3969 1.84167 17.3827 1.8275C17.2694 1.785 17.156 1.77083 17.0427 1.75667C17.0002 1.75667 16.9719 1.75667 16.9294 1.75667C16.8444 1.75667 16.7594 1.785 16.6744 1.81333C16.6319 1.8275 16.6035 1.84167 16.5752 1.85583C16.4619 1.9125 16.3485 1.96917 16.2635 2.06833L13.4302 4.90167C13.0194 5.3125 13.0194 5.9925 13.4302 6.40333C13.841 6.81417 14.521 6.81417 14.9319 6.40333L15.9519 5.38333V12.75C15.9519 13.3308 16.4335 13.8125 17.0144 13.8125C17.5952 13.8125 18.0627 13.3308 18.0627 12.75V5.3975L19.0827 6.4175C19.2952 6.63 19.5644 6.72917 19.8335 6.72917C20.1027 6.72917 20.3719 6.63 20.5844 6.4175C20.9952 6.00667 20.9952 5.32667 20.5844 4.91583Z" fill="white"/>
<path opacity="0.4" d="M22.9355 8.5H11.0638C5.90717 8.5 2.83301 11.5742 2.83301 16.7308V22.9217C2.83301 28.0925 5.90717 31.1667 11.0638 31.1667H22.9213C28.078 31.1667 31.1522 28.0925 31.1522 22.9358V16.745C31.1663 11.5742 28.0922 8.5 22.9355 8.5Z" fill="white"/>
<path d="M30.1747 17.3258H25.2447C23.8563 17.3258 22.6238 18.0908 22.0005 19.3375L20.8105 21.6892C20.5272 22.2558 19.9605 22.61 19.3372 22.61H14.6905C14.2513 22.61 13.628 22.5108 13.2172 21.6892L12.0272 19.3517C11.4038 18.1192 10.1572 17.34 8.78301 17.34H3.82467C3.27217 17.34 2.83301 17.7792 2.83301 18.3317V22.95C2.83301 28.0925 5.92134 31.1667 11.078 31.1667H22.9497C27.8088 31.1667 30.798 28.5033 31.1663 23.7717V18.3175C31.1663 17.7792 30.7272 17.3258 30.1747 17.3258Z" fill="white"/>
</svg>
