<svg width="34" height="34" viewBox="0 0 34 34" fill="none" xmlns="http://www.w3.org/2000/svg">
<path opacity="0.4" d="M22.9355 5.66666H11.0638C5.90717 5.66666 2.83301 8.74083 2.83301 13.8975V22.9217C2.83301 28.0925 5.90717 31.1667 11.0638 31.1667H22.9213C28.078 31.1667 31.1522 28.0925 31.1522 22.9358V13.8975C31.1663 8.74083 28.0922 5.66666 22.9355 5.66666Z" fill="white"/>
<path d="M30.1747 17.3258H25.2447C23.8563 17.3258 22.6238 18.0908 22.0005 19.3375L20.8105 21.6892C20.5272 22.2558 19.9605 22.61 19.3372 22.61H14.6905C14.2513 22.61 13.628 22.5108 13.2172 21.6892L12.0272 19.3517C11.4038 18.1192 10.1572 17.34 8.78301 17.34H3.82467C3.27217 17.34 2.83301 17.7792 2.83301 18.3317V22.95C2.83301 28.0925 5.92134 31.1667 11.078 31.1667H22.9497C27.8088 31.1667 30.798 28.5033 31.1663 23.7717V18.3175C31.1663 17.7792 30.7272 17.3258 30.1747 17.3258Z" fill="white"/>
<path d="M20.5839 9.16584C20.173 8.755 19.493 8.755 19.0822 9.16584L18.0622 10.1858V2.83334C18.0622 2.2525 17.5805 1.77084 16.9997 1.77084C16.4189 1.77084 15.9372 2.2525 15.9372 2.83334V10.1858L14.9172 9.16584C14.5064 8.755 13.8264 8.755 13.4155 9.16584C13.0047 9.57667 13.0047 10.2567 13.4155 10.6675L16.2489 13.5008C16.263 13.515 16.2772 13.515 16.2772 13.5292C16.3622 13.6142 16.4755 13.685 16.5889 13.7417C16.7305 13.7842 16.858 13.8125 16.9997 13.8125C17.1414 13.8125 17.2689 13.7842 17.3964 13.7275C17.5239 13.6708 17.6372 13.6 17.7505 13.5008L20.5839 10.6675C20.9947 10.2567 20.9947 9.57667 20.5839 9.16584Z" fill="white"/>
</svg>
