<svg width="34" height="34" viewBox="0 0 34 34" fill="none" xmlns="http://www.w3.org/2000/svg">
<path opacity="0.4" d="M29.042 14.4358H24.9478C21.5903 14.4358 18.8562 11.7016 18.8562 8.34409V4.24992C18.8562 3.47075 18.2187 2.83325 17.4395 2.83325H11.4328C7.06949 2.83325 3.54199 5.66659 3.54199 10.7241V23.2758C3.54199 28.3333 7.06949 31.1666 11.4328 31.1666H22.5678C26.9312 31.1666 30.4587 28.3333 30.4587 23.2758V15.8524C30.4587 15.0733 29.8212 14.4358 29.042 14.4358Z" fill="white"/>
<path d="M22.3835 3.13078C21.8027 2.54995 20.7969 2.94662 20.7969 3.75412V8.69828C20.7969 10.7666 22.5535 12.4808 24.6927 12.4808C26.0385 12.4949 27.9085 12.4949 29.5094 12.4949C30.3169 12.4949 30.7419 11.5458 30.1752 10.9791C28.1352 8.92495 24.4802 5.22745 22.3835 3.13078Z" fill="white"/>
<path d="M17.3964 20.8533C16.9855 20.4425 16.3055 20.4425 15.8947 20.8533L14.8747 21.8733V15.9375C14.8747 15.3567 14.393 14.875 13.8122 14.875C13.2314 14.875 12.7497 15.3567 12.7497 15.9375V21.8733L11.7297 20.8533C11.3189 20.4425 10.6389 20.4425 10.228 20.8533C9.81721 21.2642 9.81721 21.9442 10.228 22.355L13.0614 25.1883C13.0755 25.2025 13.0897 25.2025 13.0897 25.2167C13.1747 25.3017 13.288 25.3725 13.4014 25.4292C13.543 25.4717 13.6705 25.5 13.8122 25.5C13.9539 25.5 14.0814 25.4717 14.2089 25.415C14.3364 25.3583 14.4497 25.2875 14.563 25.1883L17.3964 22.355C17.8072 21.9442 17.8072 21.2642 17.3964 20.8533Z" fill="white"/>
</svg>
