<svg width="74" height="74" viewBox="0 0 74 74" fill="none" xmlns="http://www.w3.org/2000/svg">
<path opacity="0.4" d="M64.75 21.5834V52.4167C64.75 61.6667 60.125 67.8334 49.3333 67.8334H24.6667C13.875 67.8334 9.25 61.6667 9.25 52.4167V21.5834C9.25 12.3334 13.875 6.16669 24.6667 6.16669H49.3333C60.125 6.16669 64.75 12.3334 64.75 21.5834Z" fill="#7DBA28"/>
<path d="M57.0417 28.5208H50.875C46.1883 28.5208 42.3958 24.7283 42.3958 20.0417V13.875C42.3958 12.6108 43.4442 11.5625 44.7083 11.5625C45.9725 11.5625 47.0208 12.6108 47.0208 13.875V20.0417C47.0208 22.1692 48.7475 23.8958 50.875 23.8958H57.0417C58.3058 23.8958 59.3542 24.9442 59.3542 26.2083C59.3542 27.4725 58.3058 28.5208 57.0417 28.5208Z" fill="#7DBA28"/>
<path d="M37 42.3958H24.6667C23.4025 42.3958 22.3542 41.3475 22.3542 40.0833C22.3542 38.8191 23.4025 37.7708 24.6667 37.7708H37C38.2642 37.7708 39.3125 38.8191 39.3125 40.0833C39.3125 41.3475 38.2642 42.3958 37 42.3958Z" fill="#7DBA28"/>
<path d="M49.3333 54.7292H24.6667C23.4025 54.7292 22.3542 53.6809 22.3542 52.4167C22.3542 51.1525 23.4025 50.1042 24.6667 50.1042H49.3333C50.5975 50.1042 51.6458 51.1525 51.6458 52.4167C51.6458 53.6809 50.5975 54.7292 49.3333 54.7292Z" fill="#7DBA28"/>
</svg>
