<svg width="74" height="74" viewBox="0 0 74 74" fill="none" xmlns="http://www.w3.org/2000/svg">
<path opacity="0.4" d="M31.0492 8.69503L9.68168 25.8075C7.27668 27.7192 5.73501 31.7583 6.25918 34.78L10.36 59.3233C11.1 63.7016 15.2933 67.2475 19.7333 67.2475H54.2667C58.6759 67.2475 62.9 63.6708 63.64 59.3233L67.7409 34.78C68.2342 31.7583 66.6925 27.7192 64.3183 25.8075L42.9508 8.7258C39.6517 6.07414 34.3175 6.0742 31.0492 8.69503Z" fill="#7DBA28"/>
<path d="M37 47.7917C41.2572 47.7917 44.7083 44.3405 44.7083 40.0833C44.7083 35.8261 41.2572 32.375 37 32.375C32.7428 32.375 29.2917 35.8261 29.2917 40.0833C29.2917 44.3405 32.7428 47.7917 37 47.7917Z" fill="#7DBA28"/>
</svg>
