<svg width="66" height="66" viewBox="0 0 66 66" fill="none" xmlns="http://www.w3.org/2000/svg">
<path opacity="0.4" d="M29.5624 6.73763C31.4599 5.11513 34.5674 5.11513 36.4924 6.73763L40.8374 10.4776C41.6624 11.1926 43.2024 11.7702 44.3024 11.7702H48.9774C51.8924 11.7702 54.2849 14.1627 54.2849 17.0777V21.7525C54.2849 22.825 54.8624 24.3925 55.5774 25.2175L59.3174 29.5626C60.9399 31.4601 60.9399 34.5676 59.3174 36.4926L55.5774 40.8375C54.8624 41.6625 54.2849 43.2026 54.2849 44.3026V48.9776C54.2849 51.8926 51.8924 54.2851 48.9774 54.2851H44.3024C43.2299 54.2851 41.6624 54.8627 40.8374 55.5777L36.4924 59.3176C34.5949 60.9401 31.4874 60.9401 29.5624 59.3176L25.2175 55.5777C24.3925 54.8627 22.8524 54.2851 21.7524 54.2851H16.9949C14.0799 54.2851 11.6874 51.8926 11.6874 48.9776V44.275C11.6874 43.2025 11.1099 41.6625 10.4224 40.8375L6.70992 36.4651C5.11492 34.5676 5.11492 31.4876 6.70992 29.5901L10.4224 25.2175C11.1099 24.3925 11.6874 22.8525 11.6874 21.78V17.0777C11.6874 14.1627 14.0799 11.7702 16.9949 11.7702H21.7524C22.8249 11.7702 24.3925 11.1926 25.2175 10.4776L29.5624 6.73763Z" fill="#7DBA28"/>
<path d="M45.5952 30.4425C45.0727 29.7 44.1928 29.2876 43.1478 29.2876H37.7853C37.4278 29.2876 37.0978 29.15 36.8778 28.875C36.6578 28.6 36.5478 28.2425 36.6028 27.8575L37.2627 23.5675C37.5377 22.3025 36.6853 20.845 35.4203 20.4325C34.2378 19.9925 32.8353 20.5974 32.2853 21.4224L26.9502 29.3424V28.3525C26.9502 26.4275 26.1253 25.63 24.0903 25.63H22.7428C20.7078 25.63 19.8828 26.4275 19.8828 28.3525V41.4976C19.8828 43.4226 20.7078 44.22 22.7428 44.22H24.0903C26.0153 44.22 26.8403 43.4774 26.9228 41.7174L30.9653 44.825C31.5153 45.375 32.7528 45.6775 33.6328 45.6775H38.7202C40.4802 45.6775 42.2403 44.3574 42.6253 42.7349L45.8428 32.9449C46.2003 32.0649 46.1177 31.1575 45.5952 30.4425Z" fill="#7DBA28"/>
</svg>
