<svg width="54" height="54" viewBox="0 0 54 54" fill="none" xmlns="http://www.w3.org/2000/svg">
<path opacity="0.4" d="M46.3955 19.0125C44.033 8.6175 34.9655 3.9375 27.0005 3.9375C27.0005 3.9375 27.0005 3.9375 26.978 3.9375C19.0355 3.9375 9.94546 8.595 7.58296 18.99C4.95046 30.6 12.0605 40.4325 18.4955 46.62C20.8805 48.915 23.9405 50.0625 27.0005 50.0625C30.0605 50.0625 33.1205 48.915 35.483 46.62C41.918 40.4325 49.028 30.6225 46.3955 19.0125Z" fill="#7DBA28"/>
<path d="M26.9996 30.2854C30.9139 30.2854 34.0871 27.1122 34.0871 23.1979C34.0871 19.2835 30.9139 16.1104 26.9996 16.1104C23.0853 16.1104 19.9121 19.2835 19.9121 23.1979C19.9121 27.1122 23.0853 30.2854 26.9996 30.2854Z" fill="#7DBA28"/>
</svg>
