<svg width="40" height="40" viewBox="0 0 40 40" fill="none" xmlns="http://www.w3.org/2000/svg">
<circle cx="20.0883" cy="19.9999" r="19.265" fill="white"/>
<path d="M28.6884 16.3025C28.6463 15.349 28.4921 14.6934 28.2712 14.1254C28.0432 13.5224 27.6926 12.9826 27.2332 12.5338C26.7843 12.0781 26.2409 11.724 25.6448 11.4996C25.0733 11.2788 24.4211 11.1246 23.4674 11.0825C22.5065 11.0369 22.2015 11.0264 19.7645 11.0264C17.3276 11.0264 17.0225 11.0369 16.0652 11.079C15.1115 11.121 14.4559 11.2753 13.8878 11.4961C13.2846 11.724 12.7447 12.0745 12.2958 12.5338C11.84 12.9826 11.4859 13.526 11.2615 14.122C11.0405 14.6934 10.8863 15.3454 10.8442 16.299C10.7986 17.2596 10.7881 17.5646 10.7881 20.0011C10.7881 22.4376 10.7986 22.7426 10.8407 23.6997C10.8827 24.6532 11.0371 25.3087 11.258 25.8768C11.4859 26.4797 11.84 27.0196 12.2958 27.4683C12.7447 27.9241 13.2882 28.2782 13.8843 28.5025C14.4559 28.7234 15.108 28.8776 16.0618 28.9197C17.019 28.9618 17.3241 28.9723 19.7611 28.9723C22.1981 28.9723 22.5031 28.9618 23.4604 28.9197C24.4141 28.8776 25.0698 28.7234 25.6378 28.5025C26.8441 28.0362 27.7978 27.0827 28.2642 25.8768C28.485 25.3053 28.6393 24.6532 28.6814 23.6997C28.7234 22.7426 28.734 22.4376 28.734 20.0011C28.734 17.5646 28.7304 17.2596 28.6884 16.3025ZM27.072 23.6295C27.0334 24.506 26.8861 24.9793 26.7634 25.2948C26.4618 26.0766 25.8412 26.6971 25.0592 26.9986C24.7436 27.1213 24.2668 27.2685 23.3937 27.307C22.4469 27.3492 22.163 27.3596 19.7681 27.3596C17.3732 27.3596 17.0857 27.3492 16.1424 27.307C15.2658 27.2685 14.7924 27.1213 14.4768 26.9986C14.0877 26.8548 13.7335 26.627 13.446 26.329C13.1479 26.038 12.92 25.6874 12.7762 25.2983C12.6535 24.9828 12.5062 24.506 12.4677 23.6331C12.4256 22.6866 12.4151 22.4025 12.4151 20.0081C12.4151 17.6136 12.4256 17.3262 12.4677 16.3832C12.5062 15.5067 12.6535 15.0335 12.7762 14.718C12.92 14.3288 13.1479 13.9748 13.4495 13.6872C13.7405 13.3892 14.0911 13.1613 14.4804 13.0177C14.796 12.895 15.2729 12.7477 16.1459 12.7091C17.0927 12.6671 17.3767 12.6565 19.7715 12.6565C22.17 12.6565 22.4539 12.6671 23.3972 12.7091C24.2738 12.7477 24.7472 12.895 25.0628 13.0177C25.4519 13.1613 25.8061 13.3892 26.0936 13.6872C26.3917 13.9782 26.6196 14.3288 26.7634 14.718C26.8861 15.0335 27.0334 15.5102 27.072 16.3832C27.114 17.3297 27.1246 17.6136 27.1246 20.0081C27.1246 22.4025 27.114 22.683 27.072 23.6295Z" fill="#898989"/>
<path d="M19.7611 15.3682C17.2043 15.3682 15.1299 17.4425 15.1299 19.9994C15.1299 22.5563 17.2043 24.6306 19.7611 24.6306C22.318 24.6306 24.3923 22.5563 24.3923 19.9994C24.3923 17.4425 22.318 15.3682 19.7611 15.3682ZM19.7611 23.0035C18.1024 23.0035 16.7569 21.6582 16.7569 19.9994C16.7569 18.3405 18.1024 16.9952 19.7611 16.9952C21.4199 16.9952 22.7652 18.3405 22.7652 19.9994C22.7652 21.6582 21.4199 23.0035 19.7611 23.0035V23.0035Z" fill="#898989"/>
<path d="M25.5496 15.223C25.5496 15.7825 25.096 16.2361 24.5364 16.2361C23.977 16.2361 23.5234 15.7825 23.5234 15.223C23.5234 14.6635 23.977 14.21 24.5364 14.21C25.096 14.21 25.5496 14.6635 25.5496 15.223V15.223Z" fill="#898989"/>
</svg>
