<svg width="39" height="40" viewBox="0 0 39 40" fill="none" xmlns="http://www.w3.org/2000/svg">
<circle cx="19.7347" cy="19.9999" r="19.265" fill="white"/>
<path fill-rule="evenodd" clip-rule="evenodd" d="M26.4206 13.7638C27.1888 13.9827 27.7946 14.6235 28.0014 15.4364C28.3857 16.9212 28.3709 20.0162 28.3709 20.0162C28.3709 20.0162 28.3709 23.0954 28.0016 24.5803C27.7946 25.3931 27.189 26.034 26.4206 26.2528C25.017 26.6436 19.4027 26.6436 19.4027 26.6436C19.4027 26.6436 13.8031 26.6436 12.3849 26.2373C11.6165 26.0184 11.0108 25.3774 10.8039 24.5647C10.4346 23.0954 10.4346 20.0005 10.4346 20.0005C10.4346 20.0005 10.4346 16.9212 10.8039 15.4364C11.0107 14.6236 11.6313 13.9671 12.3847 13.7483C13.7883 13.3574 19.4026 13.3574 19.4026 13.3574C19.4026 13.3574 25.017 13.3574 26.4206 13.7638ZM22.2957 20.0005L17.667 22.7182V17.2829L22.2957 20.0005Z" fill="#898989"/>
</svg>
