<svg width="43" height="43" viewBox="0 0 43 43" fill="none" xmlns="http://www.w3.org/2000/svg">
<path opacity="0.4" d="M21.5 43C33.3741 43 43 33.3741 43 21.5C43 9.62588 33.3741 0 21.5 0C9.62588 0 0 9.62588 0 21.5C0 33.3741 9.62588 43 21.5 43Z" fill="#7DBA28"/>
<path d="M27.6089 20.2556H23.6483V16.295C23.6483 15.3671 22.8789 14.5977 21.951 14.5977C21.0231 14.5977 20.2536 15.3671 20.2536 16.295V20.2556H16.2931C15.3652 20.2556 14.5957 21.025 14.5957 21.9529C14.5957 22.8808 15.3652 23.6503 16.2931 23.6503H20.2536V27.6108C20.2536 28.5387 21.0231 29.3082 21.951 29.3082C22.8789 29.3082 23.6483 28.5387 23.6483 27.6108V23.6503H27.6089C28.5368 23.6503 29.3062 22.8808 29.3062 21.9529C29.3062 21.025 28.5368 20.2556 27.6089 20.2556Z" fill="#7DBA28"/>
</svg>
