<svg width="24" height="24" viewBox="0 0 24 24" fill="none" xmlns="http://www.w3.org/2000/svg">
<path d="M8.09027 11.63H3.40027C3.48027 6.95997 4.40026 6.18996 7.27026 4.48996C7.60026 4.28996 7.71025 3.86996 7.51025 3.52996C7.31025 3.19996 6.89023 3.08997 6.55023 3.28997C3.17023 5.28997 1.99023 6.50995 1.99023 12.33V17.72C1.99023 19.43 3.38026 20.81 5.08026 20.81H8.08026C9.84026 20.81 11.1702 19.48 11.1702 17.72V14.72C11.1802 12.96 9.85027 11.63 8.09027 11.63Z" fill="#7DBA28"/>
<path opacity="0.4" d="M18.9095 11.63H14.2195C14.2995 6.95997 15.2196 6.18996 18.0896 4.48996C18.4196 4.28996 18.5296 3.86996 18.3296 3.52996C18.1296 3.19996 17.7096 3.08997 17.3696 3.28997C13.9896 5.28997 12.8096 6.50995 12.8096 12.33V17.72C12.8096 19.43 14.1996 20.81 15.8996 20.81H18.8996C20.6596 20.81 21.9896 19.48 21.9896 17.72V14.72C21.9996 12.96 20.6695 11.63 18.9095 11.63Z" fill="#7DBA28"/>
</svg>
