<svg width="54" height="54" viewBox="0 0 54 54" fill="none" xmlns="http://www.w3.org/2000/svg">
<path opacity="0.4" d="M38.25 46.125H15.75C9 46.125 4.5 42.75 4.5 34.875V19.125C4.5 11.25 9 7.875 15.75 7.875H38.25C45 7.875 49.5 11.25 49.5 19.125V34.875C49.5 42.75 45 46.125 38.25 46.125Z" fill="#7DBA28"/>
<path d="M27.0002 28.9574C25.1102 28.9574 23.1977 28.3724 21.7352 27.1799L14.6927 21.5549C13.9727 20.9699 13.8377 19.9124 14.4227 19.1924C15.0077 18.4724 16.0652 18.3374 16.7852 18.9224L23.8277 24.5474C25.5377 25.9199 28.4402 25.9199 30.1502 24.5474L37.1927 18.9224C37.9127 18.3374 38.9927 18.4499 39.5552 19.1924C40.1402 19.9124 40.0277 20.9924 39.2852 21.5549L32.2427 27.1799C30.8027 28.3724 28.8902 28.9574 27.0002 28.9574Z" fill="#7DBA28"/>
</svg>
