<svg width="96" height="96" viewBox="0 0 96 96" fill="none" xmlns="http://www.w3.org/2000/svg">
<path d="M48.28 35.8C48.12 35.8 47.88 35.8 47.68 35.8C43.48 35.64 40.16 32.24 40.16 28C40.16 23.68 43.64 20.2 47.96 20.2C52.28 20.2 55.76 23.72 55.76 28C55.8 32.24 52.48 35.68 48.28 35.8Z" fill="#7DBA28"/>
<path d="M37 47.84C31.68 51.4 31.68 57.2 37 60.76C43.04 64.8 52.96 64.8 59 60.76C64.32 57.2 64.32 51.4 59 47.84C52.96 43.84 43.08 43.84 37 47.84Z" fill="#7DBA28"/>
<path opacity="0.4" d="M72 8H24C17.36 8 12 13.32 12 19.88V63.52C12 70.08 17.36 75.4 24 75.4H27.04C30.24 75.4 33.28 76.64 35.52 78.88L42.36 85.64C45.48 88.72 50.56 88.72 53.68 85.64L60.52 78.88C62.76 76.64 65.84 75.4 69 75.4H72C78.64 75.4 84 70.08 84 63.52V19.88C84 13.32 78.64 8 72 8ZM48 20.2C52.32 20.2 55.8 23.72 55.8 28C55.8 32.24 52.44 35.64 48.28 35.8C48.12 35.8 47.88 35.8 47.68 35.8C43.48 35.64 40.16 32.24 40.16 28C40.2 23.72 43.68 20.2 48 20.2ZM59 60.76C52.96 64.8 43.04 64.8 37 60.76C31.68 57.24 31.68 51.4 37 47.84C43.08 43.8 53 43.8 59 47.84C64.32 51.4 64.32 57.2 59 60.76Z" fill="#7DBA28"/>
</svg>
