<svg width="70" height="70" viewBox="0 0 70 70" fill="none" xmlns="http://www.w3.org/2000/svg">
<path d="M34.5013 69.0026C53.5559 69.0026 69.0026 53.5559 69.0026 34.5013C69.0026 15.4468 53.5559 0 34.5013 0C15.4468 0 0 15.4468 0 34.5013C0 53.5559 15.4468 69.0026 34.5013 69.0026Z" fill="#7DBA28" fill-opacity="0.4"/>
<path d="M55.2166 52.4821C55.6979 52.9879 55.9597 53.6635 55.9449 54.3616C55.93 55.0596 55.6397 55.7235 55.1372 56.2083C49.5149 61.5835 42.0175 64.5533 34.2394 64.4861C26.4613 64.4189 19.0163 61.3201 13.4876 55.8487C13.099 55.4585 12.8756 54.9336 12.8638 54.3831C12.852 53.8325 13.0526 53.2985 13.4241 52.892C15.918 50.176 19.2634 48.2296 22.8759 47.6822C24.3877 47.4815 25.9138 47.4099 27.4378 47.468C28.2312 47.4838 28.4613 47.1691 28.5141 46.3943C28.5961 45.1539 28.2708 44.313 27.1919 43.509C24.9826 41.8376 23.3522 39.5164 22.5294 36.8711C22.4689 36.6141 22.3514 36.3741 22.1857 36.1686C22.0201 35.963 21.8104 35.7973 21.5721 35.6837C19.2581 34.5915 17.6449 29.4451 19.7209 27.2448C20.189 26.745 19.9483 26.4012 19.6812 25.9463C14.9924 17.9834 19.3454 8.27514 28.4242 6.61169C32.3911 5.89237 35.9983 6.93698 39.0502 9.62124C39.3242 9.87746 39.6467 10.0763 39.9987 10.2062C40.3506 10.3361 40.725 10.3944 41.0998 10.3776C44.744 10.3406 47.5235 11.9353 49.2186 15.1379C50.9138 18.3405 50.5965 21.4849 48.5575 24.423C48.1211 25.0551 48.1687 25.3671 48.7876 25.785C49.2726 26.1009 49.6658 26.5391 49.9277 27.0554C50.1895 27.5716 50.3107 28.1478 50.2791 28.7258C50.1866 31.0768 49.6338 33.2744 47.4626 34.6549C47.3067 34.7603 47.1742 34.8966 47.0732 35.0554C46.9722 35.2142 46.9049 35.392 46.8755 35.5779C46.0402 38.9478 44.0521 41.9193 41.2558 43.9771C40.5893 44.4822 40.1979 46.4048 40.5867 47.1083C40.8512 47.5817 41.3193 47.4495 41.7133 47.4362C44.3083 47.3085 46.903 47.695 49.3482 48.5734C51.569 49.4269 53.5731 50.7618 55.2166 52.4821V52.4821Z" fill="#7DBA28"/>
</svg>
