<svg width="70" height="70" viewBox="0 0 70 70" fill="none" xmlns="http://www.w3.org/2000/svg">
<path d="M34.5013 69.0026C53.5559 69.0026 69.0026 53.5559 69.0026 34.5013C69.0026 15.4468 53.5559 0 34.5013 0C15.4468 0 0 15.4468 0 34.5013C0 53.5559 15.4468 69.0026 34.5013 69.0026Z" fill="#7DBA28" fill-opacity="0.4"/>
<path d="M57.2364 53.4209C57.1544 54.119 56.7789 54.6427 56.3029 55.1425C44.4763 67.6197 24.5149 67.6197 12.6962 55.1425C12.2229 54.6427 11.8447 54.119 11.7627 53.4209C11.8142 53.0499 11.9484 52.6953 12.1553 52.3832C12.3622 52.071 12.6365 51.8093 12.958 51.6173C14.2229 50.7453 15.6487 50.134 17.1524 49.8189C19.5775 49.3218 22.0052 48.8457 24.4303 48.3459C26.665 47.8857 26.9585 47.4573 26.9532 45.146C26.9532 44.4319 26.7364 44.2177 26.0355 44.1569C24.1975 44.0418 22.3809 43.6989 20.6274 43.1361C17.9299 42.1919 17.319 41.232 17.5729 38.3758C17.5914 38.1801 17.6205 37.9844 17.6443 37.7887C18.2472 32.2642 19.6727 26.9141 21.0214 21.543C22.7034 14.8363 32.1287 9.24564 39.6155 12.7418C40.5414 13.1781 41.5189 13.4954 42.5246 13.6859C45.3278 14.2148 46.7162 15.6614 47.3086 18.4805C47.5731 19.7103 47.5096 20.9665 47.8534 22.2015C49.3079 27.4219 50.7175 32.6556 51.3945 38.0532C51.7833 41.1711 51.1565 42.1655 48.1681 43.062C46.5052 43.5368 44.8019 43.8564 43.0799 44.0167C42.7255 44.0564 42.268 43.9453 42.0803 44.4398C41.435 46.1324 42.3447 47.8778 44.1087 48.2375C46.4148 48.717 48.7252 49.1834 51.0401 49.6365C52.8267 49.9388 54.5297 50.6137 56.0384 51.6173C56.6784 52.0695 57.1227 52.6116 57.2364 53.4209Z" fill="#7DBA28"/>
</svg>
