<svg width="46" height="46" viewBox="0 0 46 46" fill="none" xmlns="http://www.w3.org/2000/svg">
<path d="M0.999867 22.4338C0.800264 10.3415 11.1726 -0.0574845 23.6128 0.000239171C35.6678 0.0562137 46.0524 10.1859 45.9981 22.6122C45.9456 34.8146 35.6538 45.1034 23.3011 45.002C10.98 44.897 0.742484 34.5208 0.999867 22.4338ZM19.3458 16.7419C17.4794 16.7419 15.6129 16.7629 13.743 16.7314C12.9761 16.7174 12.6399 16.9553 12.6539 17.7809C12.6959 20.1983 12.6539 22.6174 12.6749 25.0348C12.6924 26.938 13.9566 28.2429 15.844 28.2569C19.5472 28.2831 23.2521 28.2569 26.9553 28.2796C27.7712 28.2796 28.0058 27.956 28.0058 27.1811C27.9726 24.8214 28.0058 22.4583 27.9901 20.1021C27.9813 18.003 26.7329 16.7611 24.6021 16.7436C22.8459 16.7314 21.0968 16.7419 19.3458 16.7419ZM34.2863 22.5912C34.2863 20.9015 34.2863 19.2117 34.2863 17.5185C34.2863 17.2964 34.3581 17.02 34.1112 16.8801C33.8258 16.7051 33.6192 16.9518 33.4109 17.097C32.8401 17.501 32.264 17.8998 31.7142 18.3319C30.8248 19.0316 29.5589 19.4514 29.0879 20.4432C28.6169 21.435 28.9846 22.7346 28.9443 23.8979C28.9443 23.9556 28.9443 24.0133 28.9443 24.0728C28.904 24.4978 29.1036 24.7847 29.4381 25.0261C30.7617 25.9812 32.0732 26.9502 33.3969 27.907C33.6 28.054 33.8188 28.2884 34.0972 28.1204C34.3756 27.9525 34.2723 27.6464 34.2723 27.3963C34.2916 25.7957 34.2881 24.1935 34.2863 22.5912V22.5912Z" fill="#7DBA28"/>
</svg>
