<svg width="124" height="41" viewBox="0 0 124 41" fill="none" xmlns="http://www.w3.org/2000/svg">
<path d="M43.9668 16.0327C45.4618 18.3343 46.16 21.0652 45.9536 23.8041C45.7473 26.5431 44.6478 29.1378 42.825 31.188L34.6405 25.4903L31.8145 23.5244L43.4509 16.354L43.9668 16.0327Z" fill="url(#paint0_linear_7_404)"/>
<path d="M14.3471 6.90186L13.3686 13.1059C12.9802 12.6763 12.4784 12.3656 11.9214 12.2097C11.3644 12.0538 10.7747 12.059 10.2205 12.2248C9.66631 12.3906 9.17018 12.7102 8.78938 13.1467C8.40858 13.5832 8.15865 14.1187 8.06843 14.6916C7.97822 15.2644 8.05141 15.8512 8.27954 16.3841C8.50768 16.917 8.88146 17.3744 9.35774 17.7034C9.83402 18.0324 10.3934 18.2196 10.9712 18.2434C11.5491 18.2672 12.1218 18.1266 12.6234 17.8379L9.75271 36.0248C7.63006 34.9194 5.82268 33.8572 5.06488 33.1099L3.77226 31.8343C2.57861 30.6669 1.63001 29.2718 0.98233 27.7311C0.334646 26.1904 0.000976562 24.5353 0.000976562 22.8633C0.000976562 21.1913 0.334646 19.5362 0.98233 17.9955C1.63001 16.4549 2.57861 15.0597 3.77226 13.8923L10.8459 6.91967L14.3471 6.90186Z" fill="url(#paint1_linear_7_404)"/>
<path d="M14.3471 6.90186L13.3686 13.1059C12.9802 12.6763 12.4784 12.3656 11.9214 12.2097C11.3644 12.0538 10.7747 12.059 10.2205 12.2248C9.66631 12.3906 9.17018 12.7102 8.78938 13.1467C8.40858 13.5832 8.15865 14.1187 8.06843 14.6916C7.97822 15.2644 8.05141 15.8512 8.27954 16.3841C8.50768 16.917 8.88146 17.3744 9.35774 17.7034C9.83402 18.0324 10.3934 18.2196 10.9712 18.2434C11.5491 18.2672 12.1218 18.1266 12.6234 17.8379L9.75271 36.0248C7.63006 34.9194 5.82268 33.8572 5.06488 33.1099L3.77226 31.8343C2.57861 30.6669 1.63001 29.2718 0.98233 27.7311C0.334646 26.1904 0.000976562 24.5353 0.000976562 22.8633C0.000976562 21.1913 0.334646 19.5362 0.98233 17.9955C1.63001 16.4549 2.57861 15.0597 3.77226 13.8923L10.8459 6.91967L14.3471 6.90186Z" fill="url(#paint2_linear_7_404)"/>
<path d="M20.439 21.3928V40.2212L19.9042 40.7753C18.2418 40.0643 13.5041 37.9782 9.75293 36.025L12.6225 17.8364C12.7794 17.7459 12.928 17.6419 13.0667 17.5254L19.4548 20.0299C20.024 20.2518 20.439 20.7956 20.439 21.3928Z" fill="url(#paint3_linear_7_404)"/>
<path d="M43.8832 15.9027L43.4505 16.3528L34.64 25.4902L25.5475 34.9214V21.3929C25.5475 20.7887 25.9625 20.2518 26.5317 20.0299L32.926 17.5254C33.4765 17.9918 34.1745 18.2465 34.8951 18.244C35.486 18.2451 36.0646 18.075 36.5614 17.7542C37.0582 17.4334 37.452 16.9755 37.6954 16.4356C37.9389 15.8956 38.0216 15.2967 37.9336 14.7107C37.8456 14.1248 37.5907 13.5768 37.1995 13.1327C36.8083 12.6886 36.2974 12.3673 35.7285 12.2074C35.1595 12.0475 34.5565 12.0559 33.9922 12.2315C33.4278 12.4071 32.9261 12.7424 32.5473 13.1972C32.1685 13.652 31.9288 14.2068 31.857 14.795L25.6346 17.23C24.7939 17.5602 23.9006 17.7355 22.9978 17.7473C22.0953 17.7322 21.2026 17.5571 20.3609 17.23L14.1403 14.7927C14.0637 14.1638 13.7939 13.5744 13.3682 13.1062L14.3467 6.90381L19.8147 7.81203C19.507 8.33125 19.3303 8.9179 19.2999 9.52109C19.2696 10.1243 19.3864 10.7258 19.6403 11.2735C19.8943 11.8211 20.2776 12.2984 20.7571 12.6638C21.2366 13.0293 21.7978 13.2719 22.392 13.3706C22.9861 13.4693 23.5954 13.4212 24.1668 13.2304C24.7382 13.0395 25.2546 12.7118 25.6711 12.2755C26.0876 11.8393 26.3917 11.3077 26.5569 10.7269C26.7222 10.1461 26.7436 9.53369 26.6194 8.94271L39.3416 11.0563L42.2203 13.8943C42.8416 14.505 43.3988 15.178 43.8832 15.9027V15.9027Z" fill="url(#paint4_linear_7_404)"/>
<path d="M20.439 21.3928V40.2212L19.9042 40.7753C18.2418 40.0643 13.5041 37.9782 9.75293 36.025L12.6225 17.8364C12.7794 17.7459 12.928 17.6419 13.0667 17.5254L19.4548 20.0299C20.024 20.2518 20.439 20.7956 20.439 21.3928Z" fill="url(#paint5_linear_7_404)"/>
<path d="M43.8832 15.9027L43.4505 16.3528L34.64 25.4902L25.5475 34.9214V21.3929C25.5475 20.7887 25.9625 20.2518 26.5317 20.0299L32.926 17.5254C33.4765 17.9918 34.1745 18.2465 34.8951 18.244C35.486 18.2451 36.0646 18.075 36.5614 17.7542C37.0582 17.4334 37.452 16.9755 37.6954 16.4356C37.9389 15.8956 38.0216 15.2967 37.9336 14.7107C37.8456 14.1248 37.5907 13.5768 37.1995 13.1327C36.8083 12.6886 36.2974 12.3673 35.7285 12.2074C35.1595 12.0475 34.5565 12.0559 33.9922 12.2315C33.4278 12.4071 32.9261 12.7424 32.5473 13.1972C32.1685 13.652 31.9288 14.2068 31.857 14.795L25.6346 17.23C24.7939 17.5602 23.9006 17.7355 22.9978 17.7473C22.0953 17.7322 21.2026 17.5571 20.3609 17.23L14.1403 14.7927C14.0637 14.1638 13.7939 13.5744 13.3682 13.1062L14.3467 6.90381L19.8147 7.81203C19.507 8.33125 19.3303 8.9179 19.2999 9.52109C19.2696 10.1243 19.3864 10.7258 19.6403 11.2735C19.8943 11.8211 20.2776 12.2984 20.7571 12.6638C21.2366 13.0293 21.7978 13.2719 22.392 13.3706C22.9861 13.4693 23.5954 13.4212 24.1668 13.2304C24.7382 13.0395 25.2546 12.7118 25.6711 12.2755C26.0876 11.8393 26.3917 11.3077 26.5569 10.7269C26.7222 10.1461 26.7436 9.53369 26.6194 8.94271L39.3416 11.0563L42.2203 13.8943C42.8416 14.505 43.3988 15.178 43.8832 15.9027V15.9027Z" fill="url(#paint6_linear_7_404)"/>
<path d="M39.3416 11.0544L26.6194 8.94073C26.4652 8.20985 26.0947 7.5426 25.5564 7.02618C25.018 6.50976 24.3369 6.16817 23.6019 6.04605C22.867 5.92392 22.1124 6.02694 21.4367 6.34165C20.761 6.65635 20.1957 7.16811 19.8147 7.81005L14.3467 6.90183L32.5953 4.40479L39.3416 11.0544Z" fill="url(#paint7_linear_7_404)"/>
<path d="M39.3416 11.0544L26.6194 8.94073C26.4652 8.20985 26.0947 7.5426 25.5564 7.02618C25.018 6.50976 24.3369 6.16817 23.6019 6.04605C22.867 5.92392 22.1124 6.02694 21.4367 6.34165C20.761 6.65635 20.1957 7.16811 19.8147 7.81005L14.3467 6.90183L32.5953 4.40479L39.3416 11.0544Z" fill="url(#paint8_linear_7_404)"/>
<path d="M19.9043 40.7753L20.4391 40.2212V41.0001C20.3428 40.961 20.16 40.8845 19.9043 40.7753Z" fill="url(#paint9_linear_7_404)"/>
<path d="M42.8271 31.1874C42.6319 31.4081 42.4274 31.6237 42.2138 31.834L40.9217 33.1096C38.6185 35.3796 26.6255 40.5634 25.5479 40.9996V34.9209L34.6403 25.4897L43.4508 16.3534L43.8853 15.9033C43.9146 15.9464 43.9426 15.9895 43.9707 16.0332C45.4652 18.3349 46.1629 21.0657 45.9563 23.8044C45.7496 26.5431 44.65 29.1375 42.8271 31.1874V31.1874Z" fill="url(#paint10_linear_7_404)"/>
<path d="M19.9043 40.7753L20.4391 40.2212V41.0001C20.3428 40.961 20.16 40.8845 19.9043 40.7753Z" fill="url(#paint11_linear_7_404)"/>
<path d="M42.8271 31.1874C42.6319 31.4081 42.4274 31.6237 42.2138 31.834L40.9217 33.1096C38.6185 35.3796 26.6255 40.5634 25.5479 40.9996V34.9209L34.6403 25.4897L43.4508 16.3534L43.8853 15.9033C43.9146 15.9464 43.9426 15.9895 43.9707 16.0332C45.4652 18.3349 46.1629 21.0657 45.9563 23.8044C45.7496 26.5431 44.65 29.1375 42.8271 31.1874V31.1874Z" fill="url(#paint12_linear_7_404)"/>
<path d="M14.3469 6.90183L10.8457 6.91965L13.5347 4.26855L14.3469 6.90183Z" fill="url(#paint13_linear_7_404)"/>
<path d="M14.3469 6.90183L10.8457 6.91965L13.5347 4.26855L14.3469 6.90183Z" fill="url(#paint14_linear_7_404)"/>
<path d="M32.595 4.40489L14.3464 6.90193L13.5342 4.26865L14.0163 3.79385C16.5006 1.34969 19.7416 0.0333399 22.9958 0C26.25 0.0333399 29.491 1.34969 31.9754 3.79385L32.595 4.40489Z" fill="url(#paint15_linear_7_404)"/>
<path d="M32.595 4.40489L14.3464 6.90193L13.5342 4.26865L14.0163 3.79385C16.5006 1.34969 19.7416 0.0333399 22.9958 0C26.25 0.0333399 29.491 1.34969 31.9754 3.79385L32.595 4.40489Z" fill="url(#paint16_linear_7_404)"/>
<path d="M84.8939 18.8657L84.8522 18.8996L84.8447 18.8858L84.8939 18.8657Z" fill="#323232"/>
<path d="M60.9972 8.05713H58.8613V21.4195H60.9972V8.05713Z" fill="#323232"/>
<path d="M66.5477 21.4195H68.6841V9.94428L72.621 9.9644V8.05713H62.6377V9.9644L66.5477 9.94428V21.4195Z" fill="#323232"/>
<path d="M81.0991 16.6186H83.4293C84.0872 16.6265 84.7409 16.5127 85.3576 16.2829C85.9008 16.0774 86.3973 15.7646 86.8176 15.3631C87.2196 14.9765 87.5367 14.5099 87.7485 13.9933C87.9719 13.4576 88.0835 12.8817 88.0764 12.301C88.0811 11.7291 87.9766 11.1615 87.7686 10.6289C87.5682 10.1219 87.2649 9.66227 86.8778 9.27918C86.4723 8.8833 85.9886 8.57687 85.4579 8.37958C84.8956 8.15827 84.2599 8.05078 83.5497 8.05078H78.9639V21.4132H81.0997L81.0991 16.6186ZM81.0923 9.96438H83.5434C84.3264 9.96438 84.9157 10.1725 85.3244 10.5967C85.7331 11.0209 85.9406 11.5906 85.9406 12.3022C85.9406 13.0541 85.7193 13.645 85.2705 14.075C84.8217 14.5049 84.2129 14.7193 83.4224 14.7193H81.0923V9.96438Z" fill="#323232"/>
<path d="M94.9197 8.05713H92.7414L87.8799 21.4195H90.0965L91.243 18.1292H96.402L97.5634 21.4195H99.78L94.9197 8.05713ZM91.9068 16.2829L92.8973 13.4507L93.8082 10.2817H93.8483L94.7592 13.4507L95.7434 16.2846L91.9068 16.2829Z" fill="#323232"/>
<path d="M110.175 14.5574C110.704 13.8723 110.965 13.0732 110.965 12.1466C110.97 11.5986 110.865 11.0551 110.657 10.5486C110.452 10.0601 110.149 9.61947 109.765 9.25467C109.349 8.86599 108.857 8.56861 108.319 8.38151C107.693 8.16389 107.033 8.05711 106.37 8.06594H101.489V21.4266H103.625V16.3164H105.942L108.908 21.4266H111.199L108.058 15.9945C108.942 15.7123 109.645 15.2357 110.175 14.5574ZM103.626 14.4028V9.96459H106.378C107.195 9.96459 107.804 10.1658 108.212 10.5624C108.62 10.959 108.828 11.489 108.828 12.1466C108.828 12.8318 108.614 13.3825 108.165 13.7918C107.716 14.2011 107.107 14.4028 106.317 14.4028H103.626Z" fill="#323232"/>
<path d="M115.39 8.05713H113.254V21.4195H115.39V8.05713Z" fill="#323232"/>
<path d="M123.874 21.4199L118.102 14.3226L123.7 8.06445H121.249L116.146 13.7518V14.9808L121.343 21.4199H123.874Z" fill="#323232"/>
<path d="M60.2349 29.4176C59.4181 29.3572 59.1905 29.1221 59.1905 28.7054C59.1905 28.0679 59.6525 27.8931 60.3891 27.8931C60.7331 27.8931 61.2123 27.9604 61.4003 28.0478L61.5207 27.6649C61.1497 27.5623 60.7671 27.508 60.3823 27.5034C59.3711 27.5034 58.7285 27.8259 58.7285 28.7106C58.7285 29.4693 59.1768 29.7378 60.1679 29.8119C60.9847 29.8723 61.2123 30.2011 61.2123 30.6109C61.2123 31.249 60.7101 31.4232 59.9804 31.4232C59.6589 31.4232 59.1905 31.3657 58.936 31.2691L58.8156 31.6519C59.1969 31.7603 59.591 31.8167 59.9873 31.8198C60.9916 31.8198 61.6611 31.4904 61.6611 30.6126C61.6611 29.8539 61.226 29.4981 60.2349 29.4176Z" fill="#323232"/>
<path d="M65.3764 27.6108H62.082V27.9667H63.5151V31.7473H63.9502V27.9667H65.3764V27.6108Z" fill="#323232"/>
<path d="M66.6296 27.6108C66.0604 28.9944 65.5514 30.3643 65.0762 31.7496H65.4981C65.6385 31.3133 65.7789 30.8971 65.9263 30.474H67.9354C68.1028 30.9236 68.2765 31.3535 68.4307 31.7496H68.9128C68.4106 30.5999 67.8282 29.01 67.3593 27.6108H66.6296ZM66.0604 30.1159C66.3149 29.4037 66.6027 28.6852 66.8973 27.9465H67.0779C67.3072 28.6651 67.56 29.4175 67.8145 30.1159H66.0604Z" fill="#323232"/>
<path d="M71.3764 29.9006C72.2867 29.9006 72.5682 29.3902 72.5682 28.8084C72.5682 28.1761 72.3137 27.6128 71.3965 27.6128H69.5547V31.7515H69.9835V29.9541H70.7803C71.0881 29.9541 71.6309 30.5921 72.2867 31.7469H72.8227C72.1933 30.6996 71.6711 30.0012 71.3764 29.9006ZM69.9766 29.5781V27.9686L71.3965 27.9623C71.8448 27.9623 72.093 28.2641 72.093 28.8015C72.093 29.2781 71.8448 29.5804 71.3627 29.5804L69.9766 29.5781Z" fill="#323232"/>
<path d="M72.9844 27.9667H74.4174V31.7473H74.8525L74.8462 27.9667H76.2724V27.6108H72.9844V27.9667Z" fill="#323232"/>
<path d="M78.8359 30.975V27.4565H78.4541V30.9952C78.4541 31.4315 78.5814 31.6332 78.829 31.8678L79.1237 31.6194C78.9093 31.4044 78.8422 31.2636 78.8422 30.975H78.8359Z" fill="#323232"/>
<path d="M81.0462 28.6714C80.129 28.6714 79.6934 29.0163 79.6934 30.2361C79.6934 31.4558 80.1216 31.8341 81.0462 31.8341C81.9708 31.8341 82.4053 31.4645 82.4053 30.2361C82.4053 29.0077 81.9765 28.6714 81.0462 28.6714ZM81.0525 31.4783C80.3497 31.4783 80.1216 31.223 80.1216 30.2493C80.1216 29.2221 80.3509 29.0203 81.0525 29.0272C81.7541 29.0341 81.9903 29.229 81.9903 30.2493C81.9903 31.223 81.7559 31.4783 81.0548 31.4783H81.0525Z" fill="#323232"/>
<path d="M84.5943 29.0404C84.8448 29.0355 85.0935 29.0836 85.3241 29.1818L85.4513 28.8191C85.1767 28.7276 84.89 28.6778 84.6006 28.6714C83.6765 28.6714 83.1543 29.0163 83.1543 30.2361C83.1543 31.4558 83.6702 31.8341 84.6006 31.8341C84.8919 31.8296 85.18 31.7727 85.4513 31.6662L85.3241 31.3104C85.0935 31.4102 84.8454 31.4626 84.5943 31.4645C83.8978 31.4645 83.5762 31.223 83.5762 30.2493C83.5762 29.229 83.8978 29.0404 84.5943 29.0404Z" fill="#323232"/>
<path d="M87.0526 28.6587C86.717 28.6614 86.3834 28.7111 86.0615 28.8064L86.1761 29.1686C86.4106 29.068 86.7493 29.0277 87.0359 29.0277C87.7318 29.0277 87.9198 29.1824 87.9198 29.921C87.641 29.8561 87.3555 29.8245 87.0692 29.8267C86.3997 29.8267 85.8838 29.9681 85.8838 30.8206C85.8838 31.5926 86.2392 31.8277 87.0961 31.8277C87.471 31.8277 87.98 31.7403 88.2999 31.5926V29.8204C88.2976 28.9139 87.9227 28.6587 87.0526 28.6587ZM87.9164 31.3379C87.658 31.4262 87.3869 31.4715 87.1139 31.4719C86.4908 31.4719 86.3171 31.3845 86.3171 30.7873C86.3171 30.2366 86.5178 30.1693 87.1139 30.1693C87.3836 30.1659 87.6528 30.1929 87.9164 30.2498V31.3379Z" fill="#323232"/>
<path d="M89.583 27.4565H89.1943V30.9952C89.1943 31.4315 89.3216 31.6332 89.5692 31.8678L89.8638 31.6194C89.6495 31.4044 89.5824 31.2636 89.5824 30.975L89.583 27.4565Z" fill="#323232"/>
<path d="M95.9852 29.3635H95.5897C95.5884 29.7701 95.4673 30.1672 95.2417 30.5051C94.7195 29.7578 94.4249 29.5653 94.1303 29.5313C94.8754 29.4641 95.0073 29.0077 95.0073 28.5174C95.0073 27.8529 94.6192 27.5103 93.7084 27.5103C92.7975 27.5103 92.4094 27.8862 92.4094 28.5513C92.4094 29.041 92.4427 29.4779 93.1861 29.5451C92.4025 29.5785 92.1211 30.082 92.1211 30.6459C92.1211 31.5657 92.6301 31.8278 93.588 31.8278C94.3647 31.8278 94.6926 31.6197 95.2016 31.1294C95.3289 31.3173 95.4624 31.526 95.5834 31.7473H96.0655C95.8511 31.3915 95.6642 31.0828 95.4762 30.8138C95.8041 30.3907 95.9984 29.8739 95.9852 29.3635ZM92.8577 28.5691C92.8577 28.0719 93.079 27.8707 93.7175 27.8707C94.3561 27.8707 94.5877 28.0788 94.5877 28.5754C94.5877 29.1261 94.2598 29.3549 93.6705 29.3549C93.0812 29.3549 92.8577 29.1221 92.8577 28.5691ZM93.5943 31.4697C92.8113 31.4697 92.5831 31.2282 92.5831 30.5971C92.5831 29.9389 92.9316 29.7038 93.6545 29.7038C94.1434 29.7038 94.5321 30.12 95.0073 30.8184C94.5585 31.311 94.2908 31.472 93.5943 31.472V31.4697Z" fill="#323232"/>
<path d="M99.9561 29.8734H101.034V31.3639C100.762 31.4294 100.483 31.4632 100.204 31.4645C99.1587 31.4645 98.7706 31.1627 98.7706 29.6515C98.7706 28.1403 99.1587 27.8994 100.204 27.8994C100.525 27.8994 100.967 27.9598 101.215 28.0535L101.349 27.6776C100.973 27.5744 100.586 27.5203 100.197 27.5166C98.918 27.5166 98.3086 27.9529 98.3086 29.6435C98.3086 31.334 98.918 31.8324 100.197 31.8324C100.565 31.8324 101.134 31.7991 101.458 31.6979V29.5308H99.9584L99.9561 29.8734Z" fill="#323232"/>
<path d="M104.186 27.5103C102.908 27.5103 102.318 27.9736 102.318 29.659C102.318 31.3714 102.901 31.8347 104.186 31.8278C105.472 31.8209 106.061 31.3714 106.061 29.659C106.061 27.9736 105.473 27.5103 104.186 27.5103ZM104.18 31.4587C103.135 31.4587 102.773 31.1138 102.773 29.6728C102.773 28.1552 103.135 27.873 104.18 27.873C105.238 27.873 105.606 28.1552 105.606 29.6728C105.606 31.1161 105.238 31.4587 104.18 31.4587Z" fill="#323232"/>
<path d="M111.057 28.9001C110.735 28.7524 110.213 28.665 109.853 28.665C108.929 28.665 108.5 29.0099 108.5 30.2297C108.5 31.4495 108.922 31.8277 109.853 31.8277C110.281 31.8277 110.529 31.7001 110.676 31.5794C110.676 32.3784 110.281 32.5802 109.587 32.5802C109.372 32.5802 108.944 32.506 108.737 32.4077L108.622 32.7768C108.843 32.8711 109.332 32.9492 109.586 32.9492C110.517 32.9492 111.066 32.6336 111.066 31.526H111.059L111.057 28.9001ZM110.682 31.0356C110.682 31.3173 110.3 31.465 109.858 31.465C109.155 31.465 108.928 31.2236 108.928 30.2498C108.928 29.2226 109.157 29.0347 109.858 29.0347C110.138 29.0324 110.416 29.0755 110.682 29.1623V31.0356Z" fill="#323232"/>
<path d="M112.353 27.4565H111.964V30.9952C111.964 31.4315 112.091 31.6332 112.339 31.8678L112.633 31.6194C112.42 31.4044 112.353 31.2636 112.353 30.975V27.4565Z" fill="#323232"/>
<path d="M114.552 28.6714C113.628 28.6714 113.199 29.0163 113.199 30.2361C113.199 31.4558 113.628 31.8341 114.552 31.8341C115.476 31.8341 115.911 31.4645 115.911 30.2361C115.911 29.0077 115.483 28.6714 114.552 28.6714ZM114.559 31.4783C113.856 31.4783 113.628 31.223 113.628 30.2493C113.628 29.2221 113.857 29.0203 114.559 29.0272C115.261 29.0341 115.496 29.229 115.496 30.2493C115.496 31.223 115.262 31.4783 114.559 31.4783Z" fill="#323232"/>
<path d="M117.954 28.6717C117.525 28.6717 117.278 28.7925 117.13 28.9137V27.4629H116.742V31.5924C117.063 31.7402 117.585 31.8275 117.946 31.8275C118.87 31.8275 119.299 31.4826 119.299 30.2565C119.299 29.0304 118.878 28.6649 117.954 28.6717ZM117.947 31.4648C117.668 31.4672 117.389 31.4243 117.123 31.3378V29.4575C117.123 29.1822 117.505 29.0345 117.947 29.0345C118.65 29.0345 118.878 29.2759 118.878 30.2496C118.878 31.2636 118.644 31.4648 117.947 31.4648Z" fill="#323232"/>
<path d="M121.189 28.6587C120.853 28.6614 120.519 28.7111 120.198 28.8064L120.312 29.1686C120.547 29.068 120.885 29.0277 121.169 29.0277C121.866 29.0277 122.053 29.1824 122.053 29.921C121.774 29.8561 121.489 29.8245 121.202 29.8267C120.533 29.8267 120.018 29.9681 120.018 30.8206C120.018 31.5926 120.372 31.8277 121.229 31.8277C121.604 31.8277 122.113 31.7403 122.433 31.5926V29.8204C122.434 28.9139 122.059 28.6587 121.189 28.6587ZM122.053 31.3379C121.794 31.4263 121.523 31.4715 121.25 31.4719C120.628 31.4719 120.453 31.3845 120.453 30.7873C120.453 30.2366 120.654 30.1693 121.25 30.1693C121.52 30.1659 121.789 30.1929 122.053 30.2498V31.3379Z" fill="#323232"/>
<path d="M123.719 30.975V27.4565H123.33V30.9952C123.33 31.4315 123.457 31.6332 123.705 31.8678L124 31.6194C123.785 31.4044 123.719 31.2636 123.719 30.975Z" fill="#323232"/>
<defs>
<linearGradient id="paint0_linear_7_404" x1="34.852" y1="29.8325" x2="50.9965" y2="13.733" gradientUnits="userSpaceOnUse">
<stop stop-color="#A9D906"/>
<stop offset="1" stop-color="#93CF07"/>
</linearGradient>
<linearGradient id="paint1_linear_7_404" x1="-9.21186" y1="40.977" x2="24.102" y2="7.75583" gradientUnits="userSpaceOnUse">
<stop stop-color="#86C804"/>
<stop offset="1" stop-color="#B3DF07"/>
</linearGradient>
<linearGradient id="paint2_linear_7_404" x1="-9.21186" y1="40.977" x2="24.102" y2="7.75583" gradientUnits="userSpaceOnUse">
<stop stop-color="#86C804"/>
<stop offset="1" stop-color="#B3DF07"/>
</linearGradient>
<linearGradient id="paint3_linear_7_404" x1="4.11985" y1="41.4829" x2="22.6309" y2="23.0235" gradientUnits="userSpaceOnUse">
<stop stop-color="#83C503"/>
<stop offset="1" stop-color="#9AD203"/>
</linearGradient>
<linearGradient id="paint4_linear_7_404" x1="4110.02" y1="16187.6" x2="17204.4" y2="1925.93" gradientUnits="userSpaceOnUse">
<stop stop-color="#83C503"/>
<stop offset="1" stop-color="#9AD203"/>
</linearGradient>
<linearGradient id="paint5_linear_7_404" x1="4.11985" y1="41.4829" x2="22.6309" y2="23.0235" gradientUnits="userSpaceOnUse">
<stop stop-color="#83C503"/>
<stop offset="1" stop-color="#9AD203"/>
</linearGradient>
<linearGradient id="paint6_linear_7_404" x1="4110.02" y1="16187.6" x2="17204.4" y2="1925.93" gradientUnits="userSpaceOnUse">
<stop stop-color="#83C503"/>
<stop offset="1" stop-color="#9AD203"/>
</linearGradient>
<linearGradient id="paint7_linear_7_404" x1="21.6306" y1="14.2061" x2="33.5801" y2="2.28942" gradientUnits="userSpaceOnUse">
<stop stop-color="#B0DB03"/>
<stop offset="1" stop-color="#9BD302"/>
</linearGradient>
<linearGradient id="paint8_linear_7_404" x1="21.6306" y1="14.2061" x2="33.5801" y2="2.28942" gradientUnits="userSpaceOnUse">
<stop stop-color="#B0DB03"/>
<stop offset="1" stop-color="#9BD302"/>
</linearGradient>
<linearGradient id="paint9_linear_7_404" x1="20.0895" y1="40.961" x2="20.7539" y2="40.2983" gradientUnits="userSpaceOnUse">
<stop stop-color="#77C205"/>
<stop offset="1" stop-color="#8CCD05"/>
</linearGradient>
<linearGradient id="paint10_linear_7_404" x1="9211.44" y1="18007.5" x2="20540.4" y2="8778.66" gradientUnits="userSpaceOnUse">
<stop stop-color="#77C205"/>
<stop offset="1" stop-color="#8CCD05"/>
</linearGradient>
<linearGradient id="paint11_linear_7_404" x1="20.0895" y1="40.961" x2="20.7539" y2="40.2983" gradientUnits="userSpaceOnUse">
<stop stop-color="#77C205"/>
<stop offset="1" stop-color="#8CCD05"/>
</linearGradient>
<linearGradient id="paint12_linear_7_404" x1="9211.44" y1="18007.5" x2="20540.4" y2="8778.66" gradientUnits="userSpaceOnUse">
<stop stop-color="#77C205"/>
<stop offset="1" stop-color="#8CCD05"/>
</linearGradient>
<linearGradient id="paint13_linear_7_404" x1="11.5926" y1="7.91697" x2="15.0824" y2="4.43694" gradientUnits="userSpaceOnUse">
<stop stop-color="#C3EA09"/>
<stop offset="1" stop-color="#A1D808"/>
</linearGradient>
<linearGradient id="paint14_linear_7_404" x1="11.5926" y1="7.91697" x2="15.0824" y2="4.43694" gradientUnits="userSpaceOnUse">
<stop stop-color="#C3EA09"/>
<stop offset="1" stop-color="#A1D808"/>
</linearGradient>
<linearGradient id="paint15_linear_7_404" x1="4335.01" y1="1733.07" x2="5806.28" y2="-2330.19" gradientUnits="userSpaceOnUse">
<stop stop-color="#A9D906"/>
<stop offset="1" stop-color="#93CF07"/>
</linearGradient>
<linearGradient id="paint16_linear_7_404" x1="4335.01" y1="1733.07" x2="5806.28" y2="-2330.19" gradientUnits="userSpaceOnUse">
<stop stop-color="#A9D906"/>
<stop offset="1" stop-color="#93CF07"/>
</linearGradient>
</defs>
</svg>
