<svg width="117" height="32" viewBox="0 0 117 32" fill="none" xmlns="http://www.w3.org/2000/svg">
<path d="M16.162 25.1625C16.162 27.3041 16.162 29.4441 16.162 31.584C16.162 31.9004 16.1521 32.119 15.7286 31.9298C12.117 30.3199 8.41342 28.8748 5.10223 26.7104C1.19511 24.1398 -0.597564 20.2954 0.177292 16.0448C0.599195 13.7238 1.85834 11.8905 3.54266 10.2757C6.0396 7.89434 8.49879 5.46893 10.976 3.06147C15.1885 -1.02926 21.2051 -1.01621 25.4094 3.08431C28.013 5.62552 30.6145 8.16836 33.2137 10.7128C37.3638 14.7807 37.3737 20.8173 33.3205 24.9863C31.6788 26.6745 29.6382 27.6825 27.5944 28.7166C25.347 29.8583 23.0405 30.8631 20.7323 31.8744C20.2497 32.0864 20.1889 31.938 20.1889 31.4976C20.1977 27.2568 20.1977 23.016 20.1889 18.7752C20.1889 18.3919 20.2382 18.2207 20.7028 18.3234C24.2049 19.1052 27.7071 19.8708 31.2093 20.62C31.513 20.6852 31.9316 20.938 32.1089 20.6493C32.2862 20.3606 32.1089 19.9414 31.9759 19.5989C31.861 19.3167 31.6082 19.1683 31.3653 19.015C27.8313 16.7924 24.2952 14.573 20.7569 12.357C20.3482 12.1025 20.1643 11.8432 20.1824 11.3441C20.2677 9.11601 20.1725 6.90102 19.3878 4.7741C19.2429 4.30611 19.021 3.8652 18.7312 3.46924C18.4028 3.05984 17.9809 3.05821 17.6395 3.46924C17.3546 3.84357 17.1385 4.26485 17.0009 4.71375C16.3008 6.68072 16.0212 8.77112 16.18 10.8515C16.2342 11.6833 15.9666 12.1563 15.2377 12.5935C11.7755 14.7008 8.36089 16.8832 4.92493 19.0395C4.68032 19.1928 4.44557 19.3559 4.34214 19.6429C4.21574 19.9904 4.05486 20.4128 4.25514 20.695C4.4193 20.9331 4.8215 20.695 5.11043 20.6281C8.5743 19.8811 12.0398 19.1406 15.4971 18.3577C16.0963 18.2223 16.1751 18.3935 16.1686 18.9253C16.1472 21.0049 16.162 23.0845 16.162 25.1625Z" fill="#7DB92A"/>
<path d="M116.979 20.5939C115.889 20.5939 114.804 20.5858 113.72 20.5939C113.461 20.5939 113.365 20.4765 113.29 20.2595C113.091 19.6805 112.863 19.1178 112.673 18.5322C112.571 18.2207 112.423 18.0837 112.064 18.0886C110.218 18.1082 108.372 18.1049 106.526 18.0886C106.198 18.0886 106.052 18.1897 105.953 18.4931C105.773 19.0542 105.53 19.5957 105.349 20.1584C105.246 20.4846 105.095 20.6037 104.739 20.5939C103.698 20.5678 102.655 20.5841 101.534 20.5841C102.081 19.17 102.6 17.826 103.123 16.4836C104.437 13.104 105.765 9.72934 107.053 6.33997C107.24 5.85065 107.49 5.7169 107.986 5.73647C108.949 5.77725 109.915 5.75605 110.878 5.74463C111.144 5.74463 111.327 5.7642 111.441 6.07084C113.287 10.864 115.139 15.6529 116.998 20.4373C117.005 20.4536 116.995 20.4765 116.979 20.5939ZM107.002 15.2815H111.614L109.315 8.95295C108.513 11.137 107.766 13.1872 107.002 15.2815Z" fill="#160C27"/>
<path d="M95.5437 20.8679C92.7742 20.8679 90.7928 20.359 89.0969 18.9612C88.7374 18.6643 88.6044 18.4344 88.9607 18.0315C89.3428 17.5787 89.6907 17.0984 90.0015 16.5945C90.2494 16.2014 90.4053 16.1215 90.8059 16.4803C92.2752 17.8015 94.0203 18.2974 95.9853 18.0201C96.3123 17.9782 96.6264 17.867 96.9063 17.6939C97.3774 17.3986 97.7271 17.017 97.7025 16.4086C97.6762 15.8328 97.2658 15.5637 96.8275 15.3255C96.3293 15.0848 95.7974 14.9199 95.2499 14.8362C93.9826 14.5888 92.7447 14.2111 91.5561 13.7092C90.9545 13.4575 90.4235 13.0643 90.0087 12.5635C89.5939 12.0627 89.3078 11.4693 89.175 10.8343C89.0423 10.1993 89.0668 9.5417 89.2465 8.9182C89.4262 8.29469 89.7557 7.72392 90.2067 7.255C91.1769 6.21274 92.4098 5.70548 93.7986 5.57662C96.1429 5.36132 98.3312 5.78214 100.24 7.255C100.541 7.48498 100.631 7.65624 100.35 7.98082C99.9225 8.4775 99.5234 8.99812 99.1553 9.54013C98.9255 9.87776 98.7679 9.87613 98.4576 9.62494C97.2051 8.61368 95.7424 8.24506 94.1467 8.32009C93.7732 8.33159 93.4079 8.43169 93.0812 8.61205C92.8675 8.71712 92.688 8.88004 92.5634 9.08204C92.4388 9.28404 92.3742 9.5169 92.377 9.7538C92.377 10.2562 92.7053 10.522 93.096 10.7324C93.628 10.9979 94.1985 11.179 94.7869 11.2691C95.9909 11.5156 97.1684 11.8761 98.3033 12.3456C99.8957 12.9898 100.835 14.1137 100.93 15.8475C101.028 17.6727 100.323 19.1096 98.7203 20.0459C97.5531 20.7342 96.248 20.8581 95.5437 20.8679Z" fill="#160C27"/>
<path d="M74.3928 17.105L76.0082 12.6457C76.7847 10.5008 77.5694 8.35922 78.3245 6.20621C78.4476 5.8539 78.6036 5.73483 78.9812 5.74624C79.8414 5.7756 80.7049 5.78376 81.5651 5.74624C82.0954 5.72178 82.1217 5.86857 81.946 6.31712C80.6786 9.53849 79.4343 12.7696 78.1817 15.9975C77.6514 17.366 77.1064 18.7279 76.5959 20.1029C76.4645 20.4569 76.3102 20.6184 75.9015 20.6053C74.8771 20.5727 73.851 20.5792 72.8266 20.6053C72.4868 20.6053 72.3342 20.5091 72.211 20.1894C70.4085 15.531 68.5972 10.8787 66.7772 6.2323C66.6344 5.86531 66.6442 5.7332 67.0907 5.74298C67.9728 5.77017 68.855 5.77017 69.7371 5.74298C70.1229 5.73156 70.2952 5.84085 70.4315 6.22252C71.6512 9.63635 72.894 13.0388 74.1383 16.4444C74.2023 16.6369 74.2779 16.8114 74.3928 17.105Z" fill="#160C27"/>
<path d="M55.1248 14.6144C55.1248 16.4265 55.1117 18.2386 55.1248 20.0507C55.1248 20.4601 55.0493 20.6298 54.5945 20.6037C53.8783 20.5604 53.1602 20.5604 52.444 20.6037C51.9515 20.6363 51.8825 20.4406 51.8842 20.0165C51.899 16.3906 51.8842 12.7647 51.9055 9.14051C51.9055 8.65119 51.766 8.53538 51.2965 8.55006C50.19 8.58268 49.0819 8.55006 47.9754 8.56637C47.6241 8.56637 47.5141 8.45872 47.5272 8.11293C47.5519 7.4605 47.5535 6.80807 47.5272 6.15565C47.5141 5.82943 47.6356 5.74625 47.9508 5.74625C51.6401 5.75495 55.3295 5.75495 59.0188 5.74625C59.3471 5.74625 59.4998 5.80333 59.4817 6.17848C59.4505 6.83091 59.4505 7.48334 59.4817 8.13577C59.4981 8.51254 59.3373 8.56963 59.0122 8.56474C57.9057 8.55006 56.7976 8.58105 55.6912 8.55006C55.2463 8.53701 55.0969 8.63814 55.1051 9.11441C55.1429 10.9477 55.1248 12.7811 55.1248 14.6144Z" fill="#160C27"/>
<path d="M42.3117 13.1122C42.3117 10.8287 42.3118 8.54516 42.3035 6.26981C42.3035 5.88814 42.3807 5.72503 42.8075 5.74624C43.543 5.78212 44.285 5.77397 45.0205 5.74624C45.3816 5.73319 45.513 5.81311 45.513 6.20946C45.4976 10.8537 45.4976 15.4973 45.513 20.1405C45.513 20.5466 45.3685 20.6069 45.0205 20.5955C44.2834 20.5727 43.543 20.5629 42.8075 20.5955C42.3741 20.6184 42.3052 20.4471 42.3068 20.0703C42.3183 17.7575 42.3117 15.4348 42.3117 13.1122Z" fill="#160C27"/>
<path d="M86.7511 13.2313C86.7511 15.4919 86.7346 17.7526 86.7658 20.0116C86.7658 20.5124 86.6148 20.6298 86.1502 20.6053C85.4541 20.5703 84.7566 20.5703 84.0604 20.6053C83.6434 20.6265 83.5466 20.483 83.5482 20.0899C83.563 17.154 83.5482 14.2181 83.5482 11.2903C83.5482 9.64126 83.5679 7.99061 83.5367 6.3416C83.5367 5.85228 83.7009 5.72342 84.1638 5.74952C84.8599 5.78703 85.5575 5.78703 86.2536 5.74952C86.6755 5.72832 86.7461 5.88327 86.7461 6.2682C86.7412 8.58759 86.7494 10.9086 86.7511 13.2313Z" fill="#160C27"/>
<path d="M63.4676 13.9995C64.1637 13.9995 64.8597 14.0207 65.5525 13.9995C65.9695 13.9815 66.1517 14.0892 66.1107 14.5345C66.0548 15.138 66.3569 15.9225 66.004 16.3042C65.651 16.6858 64.8466 16.4086 64.2408 16.4216C63.2394 16.4428 62.238 16.4118 61.235 16.4347C60.8558 16.4428 60.6785 16.3662 60.7096 15.9453C60.7392 15.438 60.7392 14.9293 60.7096 14.4219C60.6965 14.0957 60.8131 13.9978 61.1332 14.006C61.913 14.0125 62.6911 13.9995 63.4676 13.9995Z" fill="#160C27"/>
<path d="M78.2211 27.0317C78.0569 27.5292 77.8927 28.0283 77.7286 28.5225C77.6678 28.6987 77.6826 28.9466 77.374 28.9352C77.0982 28.9238 77.1195 28.7036 77.0686 28.5454C76.8563 27.8929 76.6516 27.2324 76.4546 26.5636C76.4218 26.4511 76.2675 26.2831 76.4973 26.2113C76.7272 26.1396 76.7633 26.3124 76.8142 26.4804C76.9685 27.0586 77.1888 27.6173 77.4708 28.1458C77.6465 27.6189 77.8238 27.0937 77.9945 26.5669C78.0503 26.3907 78.0717 26.1934 78.3228 26.2032C78.574 26.213 78.5494 26.4087 78.597 26.5538C78.7776 27.0921 78.9467 27.6336 79.1601 28.2975C79.4769 27.6744 79.559 27.0986 79.7527 26.562C79.8085 26.3989 79.8085 26.1298 80.081 26.2178C80.3536 26.3059 80.1467 26.5212 80.1057 26.6631C79.9202 27.3156 79.715 27.9484 79.518 28.591C79.4703 28.7427 79.4638 28.9173 79.2356 28.9336C78.9779 28.9515 78.945 28.7705 78.8892 28.591C78.725 28.0707 78.5494 27.5521 78.3786 27.0317H78.2211Z" fill="#160C27"/>
<path d="M90.9766 26.4592C90.9766 26.0922 90.9766 25.7464 90.9766 25.4023C90.9766 25.262 90.9652 25.0924 91.1851 25.1087C91.3493 25.1217 91.3493 25.2588 91.3493 25.3827C91.3493 26.4821 91.3493 27.5825 91.3493 28.684C91.3493 28.8227 91.2295 28.9907 91.1622 28.914C90.7796 28.4752 90.4891 28.927 90.1673 28.9841C89.8736 29.0401 89.5697 29.0046 89.2971 28.8826C89.0244 28.7606 88.7963 28.5579 88.6438 28.3023C88.4919 28.0345 88.4273 27.7266 88.4587 27.4208C88.4902 27.115 88.6162 26.8263 88.8195 26.5946C89.0254 26.3781 89.2926 26.2288 89.5859 26.1668C89.8791 26.1047 90.1844 26.1328 90.4612 26.2472C90.6188 26.3092 90.7008 26.4804 90.9766 26.4592ZM90.9766 27.5455C90.976 27.4033 90.9462 27.2626 90.8889 27.1322C90.8317 27.0018 90.7483 26.8843 90.6438 26.7871C90.5393 26.6898 90.4159 26.6148 90.2812 26.5665C90.1465 26.5183 90.0033 26.4979 89.8603 26.5065C89.5852 26.5266 89.3284 26.6509 89.143 26.8538C88.9575 27.0566 88.8577 27.3225 88.864 27.5965C88.8703 27.8705 88.9824 28.1316 89.177 28.3258C89.3716 28.52 89.6338 28.6325 89.9096 28.64C90.0521 28.6394 90.193 28.6104 90.3241 28.5547C90.4551 28.4989 90.5735 28.4176 90.6722 28.3155C90.771 28.2134 90.8481 28.0927 90.899 27.9604C90.9499 27.8281 90.9735 27.687 90.9684 27.5455H90.9766Z" fill="#160C27"/>
<path d="M93.8659 26.5767C94.5226 26.0971 95.0988 25.9911 95.6947 26.3402C96.0168 26.5451 96.2464 26.866 96.3351 27.2356C96.4239 27.6052 96.365 27.9946 96.1708 28.3219C95.7702 28.9858 94.9576 29.188 94.2419 28.8112C94.1269 28.7525 93.9841 28.3969 93.8232 28.8341C93.7576 29.0151 93.4949 28.9972 93.4949 28.6938C93.4949 27.5749 93.4949 26.456 93.4949 25.3371C93.4949 25.2049 93.5195 25.0924 93.6919 25.1005C93.8643 25.1087 93.8741 25.2278 93.8741 25.3566L93.8659 26.5767ZM94.9067 28.6416C95.1847 28.646 95.4533 28.5419 95.6547 28.3515C95.8561 28.1612 95.9742 27.8999 95.9837 27.6238C95.9943 27.4837 95.9766 27.3429 95.9316 27.2097C95.8866 27.0764 95.8152 26.9535 95.7217 26.8482C95.6281 26.7428 95.5142 26.6572 95.3867 26.5963C95.2592 26.5354 95.1208 26.5005 94.9795 26.4936C94.8383 26.4867 94.6971 26.508 94.5642 26.5563C94.4314 26.6045 94.3096 26.6787 94.2061 26.7745C94.1026 26.8703 94.0195 26.9857 93.9616 27.1139C93.9038 27.2421 93.8723 27.3806 93.8692 27.5211C93.8612 27.6628 93.882 27.8047 93.9302 27.9383C93.9783 28.0719 94.053 28.1946 94.1497 28.2991C94.2465 28.4035 94.3633 28.4877 94.4933 28.5465C94.6233 28.6054 94.7639 28.6377 94.9067 28.6416Z" fill="#160C27"/>
<path d="M69.87 28.0919C69.87 27.5624 69.87 27.0323 69.87 26.5016C69.87 26.3565 69.957 26.1134 70.0588 26.226C70.4512 26.6582 70.7352 26.2064 71.0553 26.1575C71.3393 26.1064 71.6321 26.1399 71.897 26.2536C72.162 26.3674 72.3871 26.5564 72.5443 26.7969C72.6976 27.0515 72.7716 27.3457 72.7566 27.6421C72.7417 27.9386 72.6387 28.2239 72.4606 28.4622C72.0764 28.9515 71.4444 29.1815 70.8682 28.9058C70.2607 28.6155 70.2115 28.883 70.241 29.3674C70.2509 29.4881 70.241 29.6121 70.241 29.7344C70.241 29.8877 70.241 30.0313 70.0243 30.015C69.8438 30.0019 69.8684 29.8519 69.8684 29.7409C69.8684 29.1962 69.87 28.6416 69.87 28.0919ZM71.3032 26.4984C71.0171 26.5007 70.7438 26.6159 70.5432 26.8186C70.3426 27.0212 70.2313 27.2947 70.2337 27.579C70.2361 27.8632 70.352 28.1348 70.5559 28.3341C70.7599 28.5334 71.0352 28.644 71.3213 28.6416C71.6073 28.6392 71.8807 28.524 72.0813 28.3214C72.2818 28.1187 72.3932 27.8452 72.3908 27.561C72.3884 27.2768 72.2725 27.0052 72.0685 26.8059C71.8645 26.6066 71.5892 26.496 71.3032 26.4984Z" fill="#160C27"/>
<path d="M82.1118 27.7592C81.8859 27.7478 81.6596 27.7478 81.4338 27.7592C81.2696 27.7755 81.0234 27.6385 80.9643 27.8897C80.9232 28.0707 81.0726 28.2469 81.2171 28.3529C81.7194 28.7232 82.2349 28.7656 82.7274 28.3333C82.8604 28.2159 82.9835 28.1865 83.0918 28.3235C83.2002 28.4606 83.0524 28.5388 82.9736 28.6204C82.5862 29.0233 81.8031 29.1211 81.2516 28.8406C80.7 28.5601 80.4028 27.9174 80.544 27.2291C80.5966 26.9356 80.7472 26.6684 80.9715 26.4704C81.1958 26.2724 81.4807 26.1553 81.7802 26.1379C82.0779 26.0973 82.3806 26.1593 82.6378 26.3137C82.8951 26.468 83.0912 26.7054 83.1936 26.9861C83.4546 27.6189 83.3578 27.7559 82.665 27.7543L82.1118 27.7592ZM81.8524 27.402C82.0773 27.402 82.3022 27.3873 82.5255 27.402C82.9195 27.4362 82.9408 27.2731 82.7799 26.9812C82.7121 26.8677 82.6222 26.7688 82.5156 26.6902C82.4089 26.6116 82.2876 26.5549 82.1586 26.5233C82.0297 26.4918 81.8957 26.486 81.7645 26.5063C81.6333 26.5267 81.5075 26.5728 81.3944 26.6419C81.1547 26.7805 80.9134 26.9877 80.9692 27.2552C81.025 27.5227 81.3484 27.3482 81.5487 27.3955C81.6494 27.4091 81.7512 27.4113 81.8524 27.402Z" fill="#160C27"/>
<path d="M112.356 27.601C112.377 27.8438 112.373 28.088 112.344 28.3301C112.297 28.5552 112.63 29.3087 111.852 28.7509C111.732 28.6644 111.594 28.8292 111.464 28.8797C110.781 29.1505 110.128 28.9743 109.719 28.4149C109.538 28.1431 109.448 27.8211 109.462 27.4953C109.476 27.1694 109.594 26.8564 109.798 26.6011C110.023 26.362 110.322 26.2052 110.647 26.156C110.972 26.1069 111.305 26.1683 111.591 26.3304C111.739 26.4054 111.873 26.668 112.019 26.2765C112.08 26.1134 112.348 26.1591 112.348 26.4397C112.357 26.8295 112.356 27.216 112.356 27.601ZM110.918 28.6416C111.196 28.6286 111.457 28.5091 111.648 28.3083C111.84 28.1075 111.945 27.841 111.942 27.5646C111.94 27.2883 111.83 27.0238 111.635 26.8265C111.44 26.6292 111.176 26.5145 110.898 26.5065C110.62 26.5196 110.358 26.639 110.167 26.8398C109.976 27.0406 109.871 27.3072 109.873 27.5835C109.876 27.8598 109.986 28.1244 110.181 28.3217C110.376 28.519 110.64 28.6336 110.918 28.6416Z" fill="#160C27"/>
<path d="M86.8578 27.7592C86.6329 27.7592 86.4063 27.7494 86.183 27.7592C86.0287 27.769 85.8137 27.6777 85.7398 27.8554C85.6511 28.0724 85.8235 28.2469 85.9844 28.366C86.4621 28.7216 86.9596 28.7656 87.4422 28.3741C87.585 28.2583 87.7213 28.1523 87.8461 28.3415C87.9708 28.5307 87.764 28.5943 87.6688 28.6808C87.2354 29.0739 86.403 29.113 85.8892 28.777C85.6263 28.5961 85.4297 28.3353 85.3287 28.0338C85.2278 27.7323 85.228 27.4065 85.3294 27.1052C85.4165 26.8096 85.6031 26.5528 85.858 26.3776C86.1129 26.2025 86.4207 26.1196 86.7297 26.1428C87.3634 26.1575 87.8231 26.5375 88.0135 27.1704C88.1317 27.5635 88.1022 27.8114 87.5949 27.7625C87.3494 27.7492 87.1034 27.7481 86.8578 27.7592ZM86.6673 27.402C86.8512 27.402 87.0367 27.4118 87.2206 27.402C87.3519 27.3906 87.5325 27.4819 87.6014 27.3058C87.6704 27.1296 87.5522 26.9942 87.4521 26.8654C87.2751 26.6653 87.0276 26.5403 86.7605 26.5163C86.4935 26.4923 86.2274 26.5712 86.0172 26.7365C85.8432 26.8833 85.6511 27.0627 85.7382 27.3009C85.817 27.5097 86.0665 27.3824 86.2307 27.4036C86.3761 27.4115 86.5219 27.411 86.6673 27.402Z" fill="#160C27"/>
<path d="M106.664 27.0024C106.65 26.7797 106.65 26.5563 106.664 26.3336C106.713 25.9291 106.439 25.2865 106.809 25.1674C107.399 24.9675 108.044 24.9966 108.614 25.249C108.832 25.3475 109.011 25.5128 109.127 25.7204C109.242 25.928 109.288 26.167 109.256 26.4021C109.251 26.6383 109.172 26.8669 109.028 27.0555C108.885 27.2441 108.686 27.383 108.459 27.4526C108.341 27.4865 108.22 27.5122 108.099 27.5292C107.771 27.5945 107.321 27.3661 107.114 27.6548C106.96 27.8783 107.063 28.2811 107.05 28.6041C107.05 28.7395 107.086 28.9091 106.873 28.9303C106.602 28.9499 106.661 28.7444 106.659 28.5927C106.661 28.0544 106.663 27.5309 106.664 27.0024ZM107.065 26.3043C107.121 26.6631 106.8 27.2324 107.629 27.1704C108.459 27.1084 108.862 26.8817 108.857 26.3124C108.857 25.7726 108.459 25.5344 107.741 25.4659C107.024 25.3974 106.968 25.7595 107.065 26.3043Z" fill="#160C27"/>
<path d="M116.948 28.883C116.665 28.9956 116.483 28.883 116.314 28.7199C116.097 28.5046 115.882 28.2844 115.657 28.0822C115.559 27.9941 115.477 27.8212 115.316 27.8766C115.155 27.9321 115.243 28.1229 115.204 28.2469C115.133 28.472 115.393 28.8993 115.027 28.8993C114.633 28.8993 114.841 28.4492 114.833 28.211C114.807 27.3351 114.815 26.4592 114.833 25.5834C114.833 25.4203 114.693 25.1103 115.04 25.1218C115.335 25.1299 115.204 25.4039 115.204 25.5573C115.222 26.1037 115.204 26.6485 115.204 27.2324C115.884 27.0432 116.095 26.1983 116.911 26.2162C116.635 26.5901 116.303 26.9201 115.926 27.1949C115.618 27.4526 115.657 27.6124 115.936 27.8571C116.289 28.1637 116.596 28.5209 116.948 28.883Z" fill="#160C27"/>
<path d="M74.6341 29.0037C74.4446 29.009 74.2559 28.9762 74.0795 28.9073C73.903 28.8384 73.7424 28.7349 73.6072 28.6028C73.472 28.4708 73.365 28.313 73.2927 28.1388C73.2203 27.9647 73.1841 27.7779 73.1862 27.5896C73.1791 27.3971 73.2111 27.2053 73.2802 27.0254C73.3493 26.8455 73.4541 26.6813 73.5885 26.5425C73.7228 26.4037 73.8838 26.2931 74.062 26.2174C74.2402 26.1418 74.4319 26.1025 74.6257 26.1019C74.8195 26.1014 75.0115 26.1396 75.1901 26.2143C75.3687 26.2889 75.5304 26.3986 75.6655 26.5366C75.8006 26.6746 75.9064 26.8383 75.9765 27.0178C76.0467 27.1973 76.0798 27.3889 76.0738 27.5814C76.0776 27.7699 76.043 27.9573 75.9719 28.1321C75.9008 28.3069 75.7947 28.4656 75.6601 28.5985C75.5256 28.7315 75.3653 28.8359 75.1889 28.9056C75.0125 28.9752 74.8238 29.0086 74.6341 29.0037ZM75.6913 27.5455C75.6879 27.4069 75.657 27.2704 75.6004 27.1437C75.5438 27.0169 75.4627 26.9025 75.3616 26.807C75.2606 26.7114 75.1415 26.6365 75.0114 26.5867C74.8812 26.5368 74.7424 26.5129 74.6029 26.5163C74.4634 26.5197 74.326 26.5504 74.1984 26.6066C74.0709 26.6628 73.9557 26.7434 73.8595 26.8439C73.7633 26.9443 73.688 27.0625 73.6378 27.1919C73.5876 27.3212 73.5636 27.4591 73.567 27.5977C73.5734 27.874 73.6876 28.1369 73.8855 28.3311C74.0833 28.5253 74.3494 28.6354 74.6275 28.6383C74.7708 28.6403 74.913 28.6131 75.0454 28.5584C75.1777 28.5037 75.2974 28.4226 75.397 28.3203C75.4967 28.2179 75.5742 28.0964 75.6248 27.9631C75.6754 27.8299 75.698 27.6878 75.6913 27.5455Z" fill="#160C27"/>
<path d="M98.0062 28.3154C98.2606 27.663 98.4987 27.0807 98.7187 26.4935C98.7794 26.3304 98.8483 26.1526 99.047 26.2179C99.3162 26.3043 99.1126 26.4886 99.0683 26.606C98.74 27.4759 98.3974 28.3459 98.0407 29.2158C97.8896 29.5876 97.6532 29.891 97.2346 29.9938C97.141 30.0166 97.0146 30.0492 96.9654 29.9318C96.9161 29.8144 96.9654 29.7295 97.1 29.648C97.8075 29.1994 97.8289 29.1114 97.5055 28.3921C97.2281 27.7788 96.949 27.1671 96.6847 26.5506C96.6387 26.4446 96.4565 26.2929 96.7027 26.2064C96.8669 26.1493 96.9638 26.2635 97.0311 26.4087C97.2149 26.8181 97.3955 27.2242 97.5892 27.6336C97.6779 27.8489 97.7238 28.0968 98.0062 28.3154Z" fill="#160C27"/>
<path d="M103.19 27.2079V26.4755C103.19 25.5768 103.19 25.5752 102.299 25.4822C102.16 25.4692 101.997 25.5067 102.008 25.28C102.018 25.1054 102.143 25.1071 102.266 25.1054H104.476C104.627 25.1054 104.773 25.1054 104.757 25.324C104.743 25.5034 104.592 25.4675 104.486 25.4871C104.195 25.5328 103.798 25.324 103.639 25.616C103.507 25.8541 103.596 26.2113 103.594 26.5147C103.594 27.1851 103.594 27.8571 103.594 28.5274C103.594 28.6905 103.69 28.9385 103.379 28.9271C103.123 28.9156 103.202 28.6987 103.199 28.5519C103.186 28.1017 103.19 27.6548 103.19 27.2079Z" fill="#160C27"/>
<path d="M101.482 27.0301C101.482 27.5374 101.482 28.0463 101.482 28.5535C101.482 28.7036 101.539 28.9091 101.29 28.9238C101.04 28.9385 101.066 28.7476 101.066 28.5845C101.066 27.5504 101.066 26.5147 101.066 25.4855C101.066 25.3354 101.009 25.1234 101.26 25.1152C101.57 25.1038 101.475 25.3534 101.478 25.5132C101.488 26.0156 101.482 26.5229 101.482 27.0301Z" fill="#160C27"/>
<path d="M113.099 27.5178C113.084 27.3965 113.084 27.2737 113.099 27.1525C113.18 26.8409 112.891 26.2798 113.273 26.2684C113.574 26.2586 113.868 26.1885 114.167 26.1754C114.26 26.1754 114.331 26.2162 114.331 26.3043C114.331 26.3924 114.283 26.4951 114.237 26.5049C113.267 26.7121 113.52 27.4836 113.452 28.1213C113.424 28.3888 113.648 28.8814 113.288 28.883C112.929 28.8847 113.16 28.3937 113.103 28.1278C113.081 27.9251 113.08 27.7208 113.099 27.5178Z" fill="#160C27"/>
<path d="M84.1244 26.213C84.351 26.593 84.5824 26.2129 84.8205 26.1934C84.9403 26.182 85.0815 26.1396 85.1127 26.3108C85.1195 26.3357 85.1208 26.3617 85.1164 26.3872C85.1121 26.4126 85.1022 26.4367 85.0875 26.458C85.0729 26.4793 85.0537 26.4971 85.0314 26.5103C85.0091 26.5234 84.9842 26.5316 84.9584 26.5343C84.2673 26.6484 84.2459 27.1606 84.2558 27.694C84.2558 28.0202 84.2558 28.3464 84.2558 28.6726C84.2558 28.7998 84.2558 28.9238 84.0752 28.9254C83.8946 28.927 83.8815 28.8178 83.8815 28.6808C83.8815 27.9272 83.8815 27.1736 83.8815 26.4201C83.888 26.27 83.9422 26.1885 84.1244 26.213Z" fill="#160C27"/>
</svg>
